<mxfile host="app.diagrams.net" modified="2023-12-11T12:06:36.225Z" agent="Mozilla/5.0 (X11; Linux x86_64) AppleWebKit/537.36 (KHTML, like Gecko) Chrome/118.0.0.0 Safari/537.36" etag="xb8wmEugJYUckO7LWw1I" version="22.1.7" type="github" pages="2">
  <diagram id="R2lEEEUBdFMjLlhIrx00" name="Page-1">
    <mxGraphModel dx="1173" dy="604" grid="1" gridSize="10" guides="1" tooltips="1" connect="1" arrows="1" fold="1" page="1" pageScale="1" pageWidth="850" pageHeight="1100" math="0" shadow="0" extFonts="Permanent Marker^https://fonts.googleapis.com/css?family=Permanent+Marker">
      <root>
        <mxCell id="0" />
        <mxCell id="1" parent="0" />
        <mxCell id="Tkn4l6goAaeRjZIlw_f0-64" value="" style="edgeStyle=orthogonalEdgeStyle;rounded=0;orthogonalLoop=1;jettySize=auto;html=1;endArrow=none;endFill=0;startArrow=classic;startFill=1;exitX=1;exitY=0.25;exitDx=0;exitDy=0;entryX=-0.002;entryY=0.489;entryDx=0;entryDy=0;entryPerimeter=0;" edge="1" parent="1" source="Tkn4l6goAaeRjZIlw_f0-69" target="Tkn4l6goAaeRjZIlw_f0-74">
          <mxGeometry relative="1" as="geometry">
            <mxPoint x="285.72" y="424.2339999999999" as="sourcePoint" />
            <mxPoint x="452.00000000000045" y="423.0000000000002" as="targetPoint" />
            <Array as="points">
              <mxPoint x="560" y="447" />
              <mxPoint x="560" y="432" />
              <mxPoint x="584" y="432" />
            </Array>
          </mxGeometry>
        </mxCell>
        <mxCell id="Tkn4l6goAaeRjZIlw_f0-65" value="1,1" style="edgeLabel;html=1;align=center;verticalAlign=middle;resizable=0;points=[];" connectable="0" vertex="1" parent="Tkn4l6goAaeRjZIlw_f0-64">
          <mxGeometry x="-0.0889" y="2" relative="1" as="geometry">
            <mxPoint as="offset" />
          </mxGeometry>
        </mxCell>
        <mxCell id="Tkn4l6goAaeRjZIlw_f0-66" value="" style="edgeStyle=orthogonalEdgeStyle;rounded=0;orthogonalLoop=1;jettySize=auto;html=1;shape=link;" edge="1" parent="1" source="Tkn4l6goAaeRjZIlw_f0-68" target="Tkn4l6goAaeRjZIlw_f0-76">
          <mxGeometry relative="1" as="geometry" />
        </mxCell>
        <mxCell id="Tkn4l6goAaeRjZIlw_f0-67" value="0,N" style="edgeLabel;html=1;align=center;verticalAlign=middle;resizable=0;points=[];" connectable="0" vertex="1" parent="Tkn4l6goAaeRjZIlw_f0-66">
          <mxGeometry x="0.2" y="4" relative="1" as="geometry">
            <mxPoint as="offset" />
          </mxGeometry>
        </mxCell>
        <mxCell id="Tkn4l6goAaeRjZIlw_f0-68" value="UTILISATEUR" style="swimlane;childLayout=stackLayout;horizontal=1;startSize=50;horizontalStack=0;rounded=1;fontSize=14;fontStyle=0;strokeWidth=2;resizeParent=0;resizeLast=1;shadow=0;dashed=0;align=center;arcSize=4;whiteSpace=wrap;html=1;" vertex="1" parent="1">
          <mxGeometry x="150" y="363" width="160" height="187" as="geometry" />
        </mxCell>
        <mxCell id="Tkn4l6goAaeRjZIlw_f0-69" value="+nom-d-utilisateur&lt;br style=&quot;border-color: var(--border-color);&quot;&gt;+hash-de-mot-de-passe&lt;br style=&quot;border-color: var(--border-color);&quot;&gt;+email&lt;br style=&quot;border-color: var(--border-color);&quot;&gt;+nom&lt;br style=&quot;border-color: var(--border-color);&quot;&gt;+prenom&lt;br style=&quot;border-color: var(--border-color);&quot;&gt;+date-de-naissance&lt;br style=&quot;border-color: var(--border-color);&quot;&gt;+photo-de-profil&lt;br style=&quot;border-color: var(--border-color);&quot;&gt;+date-de-creation" style="align=left;strokeColor=none;fillColor=none;spacingLeft=4;fontSize=12;verticalAlign=top;resizable=0;rotatable=0;part=1;html=1;" vertex="1" parent="Tkn4l6goAaeRjZIlw_f0-68">
          <mxGeometry y="50" width="160" height="137" as="geometry" />
        </mxCell>
        <mxCell id="Tkn4l6goAaeRjZIlw_f0-70" value="PUBLICATION" style="swimlane;childLayout=stackLayout;horizontal=1;startSize=50;horizontalStack=0;rounded=1;fontSize=14;fontStyle=0;strokeWidth=2;resizeParent=0;resizeLast=1;shadow=0;dashed=0;align=center;arcSize=4;whiteSpace=wrap;html=1;" vertex="1" parent="1">
          <mxGeometry x="963.53" y="363" width="160" height="120" as="geometry" />
        </mxCell>
        <mxCell id="Tkn4l6goAaeRjZIlw_f0-71" value="+texte&lt;br&gt;+horodatage" style="align=left;strokeColor=none;fillColor=none;spacingLeft=4;fontSize=12;verticalAlign=top;resizable=0;rotatable=0;part=1;html=1;" vertex="1" parent="Tkn4l6goAaeRjZIlw_f0-70">
          <mxGeometry y="50" width="160" height="70" as="geometry" />
        </mxCell>
        <mxCell id="Tkn4l6goAaeRjZIlw_f0-72" style="edgeStyle=orthogonalEdgeStyle;rounded=0;orthogonalLoop=1;jettySize=auto;html=1;entryX=-0.012;entryY=0.429;entryDx=0;entryDy=0;entryPerimeter=0;" edge="1" parent="1" source="Tkn4l6goAaeRjZIlw_f0-74" target="Tkn4l6goAaeRjZIlw_f0-71">
          <mxGeometry relative="1" as="geometry" />
        </mxCell>
        <mxCell id="Tkn4l6goAaeRjZIlw_f0-73" value="0,N" style="edgeLabel;html=1;align=center;verticalAlign=middle;resizable=0;points=[];" connectable="0" vertex="1" parent="Tkn4l6goAaeRjZIlw_f0-72">
          <mxGeometry x="0.0261" y="-2" relative="1" as="geometry">
            <mxPoint y="-1" as="offset" />
          </mxGeometry>
        </mxCell>
        <mxCell id="Tkn4l6goAaeRjZIlw_f0-74" value="ECRIRE" style="rhombus;whiteSpace=wrap;html=1;fontSize=14;fontStyle=0;startSize=50;rounded=1;strokeWidth=2;shadow=0;dashed=0;arcSize=4;" vertex="1" parent="1">
          <mxGeometry x="587" y="383" width="120" height="100" as="geometry" />
        </mxCell>
        <mxCell id="U8RpekV8GVtSR6ll2oT5-3" style="edgeStyle=orthogonalEdgeStyle;rounded=0;orthogonalLoop=1;jettySize=auto;html=1;entryX=0.5;entryY=0;entryDx=0;entryDy=0;" edge="1" parent="1" source="Tkn4l6goAaeRjZIlw_f0-75" target="Tkn4l6goAaeRjZIlw_f0-68">
          <mxGeometry relative="1" as="geometry" />
        </mxCell>
        <mxCell id="Tkn4l6goAaeRjZIlw_f0-75" value="COMMENTER" style="shape=rhombus;perimeter=rhombusPerimeter;whiteSpace=wrap;html=1;align=center;" vertex="1" parent="1">
          <mxGeometry x="330" y="130" width="110" height="90" as="geometry" />
        </mxCell>
        <mxCell id="Tkn4l6goAaeRjZIlw_f0-76" value="SUIVRE" style="rhombus;whiteSpace=wrap;html=1;fontSize=14;fontStyle=0;startSize=50;rounded=1;strokeWidth=2;shadow=0;dashed=0;arcSize=4;" vertex="1" parent="1">
          <mxGeometry x="25" y="416.5" width="80" height="80" as="geometry" />
        </mxCell>
        <mxCell id="Tkn4l6goAaeRjZIlw_f0-77" value="COMMENTAIRE" style="swimlane;childLayout=stackLayout;horizontal=1;startSize=50;horizontalStack=0;rounded=1;fontSize=14;fontStyle=0;strokeWidth=2;resizeParent=0;resizeLast=1;shadow=0;dashed=0;align=center;arcSize=4;whiteSpace=wrap;html=1;" vertex="1" parent="1">
          <mxGeometry x="567" y="204.03" width="160" height="120" as="geometry" />
        </mxCell>
        <mxCell id="Tkn4l6goAaeRjZIlw_f0-78" value="+texte&lt;br&gt;+horodatage" style="align=left;strokeColor=none;fillColor=none;spacingLeft=4;fontSize=12;verticalAlign=top;resizable=0;rotatable=0;part=1;html=1;" vertex="1" parent="Tkn4l6goAaeRjZIlw_f0-77">
          <mxGeometry y="50" width="160" height="70" as="geometry" />
        </mxCell>
        <mxCell id="Tkn4l6goAaeRjZIlw_f0-81" value="EMETTRE" style="shape=rhombus;perimeter=rhombusPerimeter;whiteSpace=wrap;html=1;align=center;" vertex="1" parent="1">
          <mxGeometry x="392" y="250" width="120" height="60" as="geometry" />
        </mxCell>
        <mxCell id="Tkn4l6goAaeRjZIlw_f0-82" style="edgeStyle=orthogonalEdgeStyle;rounded=0;orthogonalLoop=1;jettySize=auto;html=1;exitX=0.5;exitY=1;exitDx=0;exitDy=0;entryX=-0.005;entryY=0.194;entryDx=0;entryDy=0;entryPerimeter=0;" edge="1" parent="1" source="Tkn4l6goAaeRjZIlw_f0-84" target="Tkn4l6goAaeRjZIlw_f0-71">
          <mxGeometry relative="1" as="geometry" />
        </mxCell>
        <mxCell id="Tkn4l6goAaeRjZIlw_f0-83" value="1,1" style="edgeLabel;html=1;align=center;verticalAlign=middle;resizable=0;points=[];" connectable="0" vertex="1" parent="Tkn4l6goAaeRjZIlw_f0-82">
          <mxGeometry x="0.0303" relative="1" as="geometry">
            <mxPoint as="offset" />
          </mxGeometry>
        </mxCell>
        <mxCell id="Tkn4l6goAaeRjZIlw_f0-84" value="COMMENTER" style="shape=rhombus;perimeter=rhombusPerimeter;whiteSpace=wrap;html=1;align=center;" vertex="1" parent="1">
          <mxGeometry x="820" y="250" width="120" height="60" as="geometry" />
        </mxCell>
        <mxCell id="Tkn4l6goAaeRjZIlw_f0-85" style="edgeStyle=orthogonalEdgeStyle;rounded=0;orthogonalLoop=1;jettySize=auto;html=1;exitX=1;exitY=0.5;exitDx=0;exitDy=0;entryX=0.012;entryY=0.346;entryDx=0;entryDy=0;entryPerimeter=0;" edge="1" parent="1" source="Tkn4l6goAaeRjZIlw_f0-81" target="Tkn4l6goAaeRjZIlw_f0-78">
          <mxGeometry relative="1" as="geometry">
            <mxPoint x="433.1200000000001" y="278.66999999999985" as="targetPoint" />
          </mxGeometry>
        </mxCell>
        <mxCell id="Tkn4l6goAaeRjZIlw_f0-86" value="0,N" style="edgeLabel;html=1;align=center;verticalAlign=middle;resizable=0;points=[];" connectable="0" vertex="1" parent="Tkn4l6goAaeRjZIlw_f0-85">
          <mxGeometry x="-0.1682" y="-1" relative="1" as="geometry">
            <mxPoint as="offset" />
          </mxGeometry>
        </mxCell>
        <mxCell id="Tkn4l6goAaeRjZIlw_f0-87" style="edgeStyle=orthogonalEdgeStyle;rounded=0;orthogonalLoop=1;jettySize=auto;html=1;exitX=0;exitY=0.5;exitDx=0;exitDy=0;entryX=1.011;entryY=0.372;entryDx=0;entryDy=0;entryPerimeter=0;" edge="1" parent="1" source="Tkn4l6goAaeRjZIlw_f0-84" target="Tkn4l6goAaeRjZIlw_f0-78">
          <mxGeometry relative="1" as="geometry" />
        </mxCell>
        <mxCell id="Tkn4l6goAaeRjZIlw_f0-88" value="0,,N" style="edgeLabel;html=1;align=center;verticalAlign=middle;resizable=0;points=[];" connectable="0" vertex="1" parent="Tkn4l6goAaeRjZIlw_f0-87">
          <mxGeometry x="-0.1874" relative="1" as="geometry">
            <mxPoint x="-1" as="offset" />
          </mxGeometry>
        </mxCell>
        <mxCell id="Tkn4l6goAaeRjZIlw_f0-89" style="edgeStyle=orthogonalEdgeStyle;rounded=0;orthogonalLoop=1;jettySize=auto;html=1;exitX=0.5;exitY=1;exitDx=0;exitDy=0;entryX=1;entryY=0.12;entryDx=0;entryDy=0;entryPerimeter=0;" edge="1" parent="1" source="Tkn4l6goAaeRjZIlw_f0-81" target="Tkn4l6goAaeRjZIlw_f0-69">
          <mxGeometry relative="1" as="geometry">
            <mxPoint x="287" y="397.9689999999998" as="targetPoint" />
            <Array as="points">
              <mxPoint x="452" y="362" />
              <mxPoint x="450" y="362" />
              <mxPoint x="450" y="430" />
              <mxPoint x="310" y="430" />
            </Array>
          </mxGeometry>
        </mxCell>
        <mxCell id="Tkn4l6goAaeRjZIlw_f0-90" value="1,1" style="edgeLabel;html=1;align=center;verticalAlign=middle;resizable=0;points=[];" connectable="0" vertex="1" parent="Tkn4l6goAaeRjZIlw_f0-89">
          <mxGeometry x="-0.4384" relative="1" as="geometry">
            <mxPoint as="offset" />
          </mxGeometry>
        </mxCell>
        <mxCell id="Tkn4l6goAaeRjZIlw_f0-91" style="edgeStyle=orthogonalEdgeStyle;rounded=0;orthogonalLoop=1;jettySize=auto;html=1;exitX=1;exitY=0.5;exitDx=0;exitDy=0;entryX=0;entryY=0.5;entryDx=0;entryDy=0;" edge="1" parent="1" source="Tkn4l6goAaeRjZIlw_f0-93" target="Tkn4l6goAaeRjZIlw_f0-94">
          <mxGeometry relative="1" as="geometry" />
        </mxCell>
        <mxCell id="Tkn4l6goAaeRjZIlw_f0-92" value="0,N" style="edgeLabel;html=1;align=center;verticalAlign=middle;resizable=0;points=[];" connectable="0" vertex="1" parent="Tkn4l6goAaeRjZIlw_f0-91">
          <mxGeometry x="-0.2703" y="-1" relative="1" as="geometry">
            <mxPoint as="offset" />
          </mxGeometry>
        </mxCell>
        <mxCell id="Tkn4l6goAaeRjZIlw_f0-93" value="METTRE" style="rhombus;whiteSpace=wrap;html=1;fontSize=14;fontStyle=0;startSize=50;rounded=1;strokeWidth=2;shadow=0;dashed=0;arcSize=4;" vertex="1" parent="1">
          <mxGeometry x="393" y="570" width="120" height="100" as="geometry" />
        </mxCell>
        <mxCell id="Tkn4l6goAaeRjZIlw_f0-94" value="FAVORI" style="swimlane;childLayout=stackLayout;horizontal=1;startSize=50;horizontalStack=0;rounded=1;fontSize=14;fontStyle=0;strokeWidth=2;resizeParent=0;resizeLast=1;shadow=0;dashed=0;align=center;arcSize=4;whiteSpace=wrap;html=1;" vertex="1" parent="1">
          <mxGeometry x="576.5" y="560" width="160" height="120" as="geometry" />
        </mxCell>
        <mxCell id="Tkn4l6goAaeRjZIlw_f0-95" value="+Attribute1&#xa;+Attribute2&#xa;+Attribute3" style="align=left;strokeColor=none;fillColor=none;spacingLeft=4;fontSize=12;verticalAlign=top;resizable=0;rotatable=0;part=1;html=1;" vertex="1" parent="Tkn4l6goAaeRjZIlw_f0-94">
          <mxGeometry y="50" width="160" height="70" as="geometry" />
        </mxCell>
        <mxCell id="Tkn4l6goAaeRjZIlw_f0-96" style="edgeStyle=orthogonalEdgeStyle;rounded=0;orthogonalLoop=1;jettySize=auto;html=1;exitX=0;exitY=0.5;exitDx=0;exitDy=0;entryX=1;entryY=0.25;entryDx=0;entryDy=0;" edge="1" parent="1" source="Tkn4l6goAaeRjZIlw_f0-98" target="Tkn4l6goAaeRjZIlw_f0-95">
          <mxGeometry relative="1" as="geometry" />
        </mxCell>
        <mxCell id="Tkn4l6goAaeRjZIlw_f0-97" value="0,N" style="edgeLabel;html=1;align=center;verticalAlign=middle;resizable=0;points=[];" connectable="0" vertex="1" parent="Tkn4l6goAaeRjZIlw_f0-96">
          <mxGeometry x="-0.1826" relative="1" as="geometry">
            <mxPoint as="offset" />
          </mxGeometry>
        </mxCell>
        <mxCell id="Tkn4l6goAaeRjZIlw_f0-98" value="ETRE AJOUTER" style="rhombus;whiteSpace=wrap;html=1;fontSize=14;fontStyle=0;startSize=50;rounded=1;strokeWidth=2;shadow=0;dashed=0;arcSize=4;" vertex="1" parent="1">
          <mxGeometry x="820" y="570" width="120" height="100" as="geometry" />
        </mxCell>
        <mxCell id="Tkn4l6goAaeRjZIlw_f0-99" style="edgeStyle=orthogonalEdgeStyle;rounded=0;orthogonalLoop=1;jettySize=auto;html=1;exitX=1;exitY=0.5;exitDx=0;exitDy=0;entryX=0;entryY=0.5;entryDx=0;entryDy=0;" edge="1" parent="1" source="Tkn4l6goAaeRjZIlw_f0-101" target="Tkn4l6goAaeRjZIlw_f0-102">
          <mxGeometry relative="1" as="geometry" />
        </mxCell>
        <mxCell id="Tkn4l6goAaeRjZIlw_f0-100" value="0,N" style="edgeLabel;html=1;align=center;verticalAlign=middle;resizable=0;points=[];" connectable="0" vertex="1" parent="Tkn4l6goAaeRjZIlw_f0-99">
          <mxGeometry x="-0.0073" y="-1" relative="1" as="geometry">
            <mxPoint as="offset" />
          </mxGeometry>
        </mxCell>
        <mxCell id="Tkn4l6goAaeRjZIlw_f0-101" value="EFFECTUER" style="rhombus;whiteSpace=wrap;html=1;fontSize=14;fontStyle=0;startSize=50;rounded=1;strokeWidth=2;shadow=0;dashed=0;arcSize=4;" vertex="1" parent="1">
          <mxGeometry x="388" y="727" width="120" height="100" as="geometry" />
        </mxCell>
        <mxCell id="Tkn4l6goAaeRjZIlw_f0-102" value="REPOST" style="swimlane;childLayout=stackLayout;horizontal=1;startSize=50;horizontalStack=0;rounded=1;fontSize=14;fontStyle=0;strokeWidth=2;resizeParent=0;resizeLast=1;shadow=0;dashed=0;align=center;arcSize=4;whiteSpace=wrap;html=1;" vertex="1" parent="1">
          <mxGeometry x="576.5" y="717" width="160" height="120" as="geometry" />
        </mxCell>
        <mxCell id="Tkn4l6goAaeRjZIlw_f0-103" value="+Attribute1&#xa;+Attribute2&#xa;+Attribute3" style="align=left;strokeColor=none;fillColor=none;spacingLeft=4;fontSize=12;verticalAlign=top;resizable=0;rotatable=0;part=1;html=1;" vertex="1" parent="Tkn4l6goAaeRjZIlw_f0-102">
          <mxGeometry y="50" width="160" height="70" as="geometry" />
        </mxCell>
        <mxCell id="Tkn4l6goAaeRjZIlw_f0-104" style="edgeStyle=orthogonalEdgeStyle;rounded=0;orthogonalLoop=1;jettySize=auto;html=1;exitX=1;exitY=0.5;exitDx=0;exitDy=0;entryX=0.25;entryY=1;entryDx=0;entryDy=0;" edge="1" parent="1" source="Tkn4l6goAaeRjZIlw_f0-106" target="Tkn4l6goAaeRjZIlw_f0-71">
          <mxGeometry relative="1" as="geometry" />
        </mxCell>
        <mxCell id="Tkn4l6goAaeRjZIlw_f0-105" value="1,1" style="edgeLabel;html=1;align=center;verticalAlign=middle;resizable=0;points=[];" connectable="0" vertex="1" parent="Tkn4l6goAaeRjZIlw_f0-104">
          <mxGeometry x="-0.4794" relative="1" as="geometry">
            <mxPoint as="offset" />
          </mxGeometry>
        </mxCell>
        <mxCell id="Tkn4l6goAaeRjZIlw_f0-106" value="ETRE" style="rhombus;whiteSpace=wrap;html=1;fontSize=14;fontStyle=0;startSize=50;rounded=1;strokeWidth=2;shadow=0;dashed=0;arcSize=4;" vertex="1" parent="1">
          <mxGeometry x="815" y="727" width="120" height="100" as="geometry" />
        </mxCell>
        <mxCell id="Tkn4l6goAaeRjZIlw_f0-107" style="edgeStyle=orthogonalEdgeStyle;rounded=0;orthogonalLoop=1;jettySize=auto;html=1;exitX=1;exitY=0.5;exitDx=0;exitDy=0;entryX=0;entryY=0.5;entryDx=0;entryDy=0;" edge="1" parent="1" source="Tkn4l6goAaeRjZIlw_f0-109" target="Tkn4l6goAaeRjZIlw_f0-110">
          <mxGeometry relative="1" as="geometry" />
        </mxCell>
        <mxCell id="Tkn4l6goAaeRjZIlw_f0-108" value="0,N" style="edgeLabel;html=1;align=center;verticalAlign=middle;resizable=0;points=[];" connectable="0" vertex="1" parent="Tkn4l6goAaeRjZIlw_f0-107">
          <mxGeometry x="0.0446" y="-1" relative="1" as="geometry">
            <mxPoint as="offset" />
          </mxGeometry>
        </mxCell>
        <mxCell id="Tkn4l6goAaeRjZIlw_f0-109" value="POSTER" style="rhombus;whiteSpace=wrap;html=1;fontSize=14;fontStyle=0;startSize=50;rounded=1;strokeWidth=2;shadow=0;dashed=0;arcSize=4;" vertex="1" parent="1">
          <mxGeometry x="393" y="890" width="120" height="100" as="geometry" />
        </mxCell>
        <mxCell id="Tkn4l6goAaeRjZIlw_f0-110" value="CITATION" style="swimlane;childLayout=stackLayout;horizontal=1;startSize=50;horizontalStack=0;rounded=1;fontSize=14;fontStyle=0;strokeWidth=2;resizeParent=0;resizeLast=1;shadow=0;dashed=0;align=center;arcSize=4;whiteSpace=wrap;html=1;" vertex="1" parent="1">
          <mxGeometry x="576.5" y="880" width="160" height="120" as="geometry" />
        </mxCell>
        <mxCell id="Tkn4l6goAaeRjZIlw_f0-111" value="+Attribute1&#xa;+Attribute2&#xa;+Attribute3" style="align=left;strokeColor=none;fillColor=none;spacingLeft=4;fontSize=12;verticalAlign=top;resizable=0;rotatable=0;part=1;html=1;" vertex="1" parent="Tkn4l6goAaeRjZIlw_f0-110">
          <mxGeometry y="50" width="160" height="70" as="geometry" />
        </mxCell>
        <mxCell id="Tkn4l6goAaeRjZIlw_f0-112" style="edgeStyle=orthogonalEdgeStyle;rounded=0;orthogonalLoop=1;jettySize=auto;html=1;exitX=0;exitY=0.5;exitDx=0;exitDy=0;entryX=1;entryY=0.5;entryDx=0;entryDy=0;" edge="1" parent="1" source="Tkn4l6goAaeRjZIlw_f0-114" target="Tkn4l6goAaeRjZIlw_f0-110">
          <mxGeometry relative="1" as="geometry" />
        </mxCell>
        <mxCell id="Tkn4l6goAaeRjZIlw_f0-113" value="0,N" style="edgeLabel;html=1;align=center;verticalAlign=middle;resizable=0;points=[];" connectable="0" vertex="1" parent="Tkn4l6goAaeRjZIlw_f0-112">
          <mxGeometry x="-0.1665" relative="1" as="geometry">
            <mxPoint as="offset" />
          </mxGeometry>
        </mxCell>
        <mxCell id="Tkn4l6goAaeRjZIlw_f0-114" value="ETRE" style="rhombus;whiteSpace=wrap;html=1;fontSize=14;fontStyle=0;startSize=50;rounded=1;strokeWidth=2;shadow=0;dashed=0;arcSize=4;" vertex="1" parent="1">
          <mxGeometry x="820" y="890" width="120" height="100" as="geometry" />
        </mxCell>
        <mxCell id="Tkn4l6goAaeRjZIlw_f0-115" style="edgeStyle=orthogonalEdgeStyle;rounded=0;orthogonalLoop=1;jettySize=auto;html=1;exitX=0;exitY=0.5;exitDx=0;exitDy=0;entryX=0.83;entryY=1.011;entryDx=0;entryDy=0;entryPerimeter=0;" edge="1" parent="1" source="Tkn4l6goAaeRjZIlw_f0-93" target="Tkn4l6goAaeRjZIlw_f0-69">
          <mxGeometry relative="1" as="geometry">
            <mxPoint x="290" y="580" as="targetPoint" />
          </mxGeometry>
        </mxCell>
        <mxCell id="Tkn4l6goAaeRjZIlw_f0-116" value="1,1" style="edgeLabel;html=1;align=center;verticalAlign=middle;resizable=0;points=[];" connectable="0" vertex="1" parent="Tkn4l6goAaeRjZIlw_f0-115">
          <mxGeometry x="-0.2798" y="-2" relative="1" as="geometry">
            <mxPoint as="offset" />
          </mxGeometry>
        </mxCell>
        <mxCell id="Tkn4l6goAaeRjZIlw_f0-117" style="edgeStyle=orthogonalEdgeStyle;rounded=0;orthogonalLoop=1;jettySize=auto;html=1;exitX=0;exitY=0.5;exitDx=0;exitDy=0;entryX=0.75;entryY=1;entryDx=0;entryDy=0;" edge="1" parent="1" source="Tkn4l6goAaeRjZIlw_f0-101" target="Tkn4l6goAaeRjZIlw_f0-69">
          <mxGeometry relative="1" as="geometry" />
        </mxCell>
        <mxCell id="Tkn4l6goAaeRjZIlw_f0-118" value="1,1" style="edgeLabel;html=1;align=center;verticalAlign=middle;resizable=0;points=[];" connectable="0" vertex="1" parent="Tkn4l6goAaeRjZIlw_f0-117">
          <mxGeometry x="-0.6126" y="2" relative="1" as="geometry">
            <mxPoint as="offset" />
          </mxGeometry>
        </mxCell>
        <mxCell id="Tkn4l6goAaeRjZIlw_f0-119" style="edgeStyle=orthogonalEdgeStyle;rounded=0;orthogonalLoop=1;jettySize=auto;html=1;exitX=0;exitY=0.5;exitDx=0;exitDy=0;entryX=0.666;entryY=1.008;entryDx=0;entryDy=0;entryPerimeter=0;" edge="1" parent="1" source="Tkn4l6goAaeRjZIlw_f0-109" target="Tkn4l6goAaeRjZIlw_f0-69">
          <mxGeometry relative="1" as="geometry">
            <mxPoint x="260" y="570" as="targetPoint" />
          </mxGeometry>
        </mxCell>
        <mxCell id="Tkn4l6goAaeRjZIlw_f0-120" value="1,1" style="edgeLabel;html=1;align=center;verticalAlign=middle;resizable=0;points=[];" connectable="0" vertex="1" parent="Tkn4l6goAaeRjZIlw_f0-119">
          <mxGeometry x="-0.7487" y="2" relative="1" as="geometry">
            <mxPoint as="offset" />
          </mxGeometry>
        </mxCell>
        <mxCell id="Tkn4l6goAaeRjZIlw_f0-121" style="edgeStyle=orthogonalEdgeStyle;rounded=0;orthogonalLoop=1;jettySize=auto;html=1;exitX=0;exitY=0.5;exitDx=0;exitDy=0;entryX=1.009;entryY=0.198;entryDx=0;entryDy=0;entryPerimeter=0;" edge="1" parent="1" source="Tkn4l6goAaeRjZIlw_f0-106" target="Tkn4l6goAaeRjZIlw_f0-103">
          <mxGeometry relative="1" as="geometry" />
        </mxCell>
        <mxCell id="Tkn4l6goAaeRjZIlw_f0-122" value="0,N" style="edgeLabel;html=1;align=center;verticalAlign=middle;resizable=0;points=[];" connectable="0" vertex="1" parent="Tkn4l6goAaeRjZIlw_f0-121">
          <mxGeometry x="-0.2047" relative="1" as="geometry">
            <mxPoint as="offset" />
          </mxGeometry>
        </mxCell>
        <mxCell id="Tkn4l6goAaeRjZIlw_f0-123" style="edgeStyle=orthogonalEdgeStyle;rounded=0;orthogonalLoop=1;jettySize=auto;html=1;exitX=1;exitY=0.5;exitDx=0;exitDy=0;entryX=0.128;entryY=0.983;entryDx=0;entryDy=0;entryPerimeter=0;" edge="1" parent="1" source="Tkn4l6goAaeRjZIlw_f0-98" target="Tkn4l6goAaeRjZIlw_f0-71">
          <mxGeometry relative="1" as="geometry" />
        </mxCell>
        <mxCell id="Tkn4l6goAaeRjZIlw_f0-124" value="1,1" style="edgeLabel;html=1;align=center;verticalAlign=middle;resizable=0;points=[];" connectable="0" vertex="1" parent="Tkn4l6goAaeRjZIlw_f0-123">
          <mxGeometry x="-0.2128" relative="1" as="geometry">
            <mxPoint as="offset" />
          </mxGeometry>
        </mxCell>
        <mxCell id="Tkn4l6goAaeRjZIlw_f0-125" style="edgeStyle=orthogonalEdgeStyle;rounded=0;orthogonalLoop=1;jettySize=auto;html=1;exitX=1;exitY=0.5;exitDx=0;exitDy=0;entryX=0.379;entryY=1.015;entryDx=0;entryDy=0;entryPerimeter=0;" edge="1" parent="1" source="Tkn4l6goAaeRjZIlw_f0-114" target="Tkn4l6goAaeRjZIlw_f0-71">
          <mxGeometry relative="1" as="geometry" />
        </mxCell>
        <mxCell id="Tkn4l6goAaeRjZIlw_f0-126" value="1,1" style="edgeLabel;html=1;align=center;verticalAlign=middle;resizable=0;points=[];" connectable="0" vertex="1" parent="Tkn4l6goAaeRjZIlw_f0-125">
          <mxGeometry x="-0.5242" y="-1" relative="1" as="geometry">
            <mxPoint as="offset" />
          </mxGeometry>
        </mxCell>
        <mxCell id="U8RpekV8GVtSR6ll2oT5-2" style="edgeStyle=orthogonalEdgeStyle;rounded=0;orthogonalLoop=1;jettySize=auto;html=1;entryX=0.433;entryY=0;entryDx=0;entryDy=0;entryPerimeter=0;" edge="1" parent="1" source="Tkn4l6goAaeRjZIlw_f0-75" target="Tkn4l6goAaeRjZIlw_f0-77">
          <mxGeometry relative="1" as="geometry" />
        </mxCell>
      </root>
    </mxGraphModel>
  </diagram>
  <diagram id="dEUJVd2mYHMvwyTPf_XQ" name="Page-2">
    <mxGraphModel dx="1173" dy="604" grid="1" gridSize="10" guides="1" tooltips="1" connect="1" arrows="1" fold="1" page="1" pageScale="1" pageWidth="1100" pageHeight="850" math="0" shadow="0">
      <root>
        <mxCell id="0" />
        <mxCell id="1" parent="0" />
        <mxCell id="Vs4MO0yzSmGj7dVC-3Ge-94" style="edgeStyle=orthogonalEdgeStyle;rounded=0;orthogonalLoop=1;jettySize=auto;html=1;exitX=1;exitY=0;exitDx=0;exitDy=0;entryX=0;entryY=0;entryDx=0;entryDy=0;endArrow=none;endFill=0;fillColor=#bac8d3;strokeColor=#23445d;" edge="1" parent="1" source="Vs4MO0yzSmGj7dVC-3Ge-1" target="Vs4MO0yzSmGj7dVC-3Ge-29">
          <mxGeometry relative="1" as="geometry" />
        </mxCell>
        <mxCell id="Vs4MO0yzSmGj7dVC-3Ge-1" value="USER" style="shape=table;startSize=30;container=1;collapsible=1;childLayout=tableLayout;fixedRows=1;rowLines=0;fontStyle=1;align=center;resizeLast=1;html=1;fillColor=#bac8d3;strokeColor=#23445d;" vertex="1" parent="1">
          <mxGeometry x="560" y="590" width="180" height="300" as="geometry" />
        </mxCell>
        <mxCell id="Vs4MO0yzSmGj7dVC-3Ge-2" value="" style="shape=tableRow;horizontal=0;startSize=0;swimlaneHead=0;swimlaneBody=0;fillColor=#bac8d3;collapsible=0;dropTarget=0;points=[[0,0.5],[1,0.5]];portConstraint=eastwest;top=0;left=0;right=0;bottom=1;strokeColor=#23445d;" vertex="1" parent="Vs4MO0yzSmGj7dVC-3Ge-1">
          <mxGeometry y="30" width="180" height="30" as="geometry" />
        </mxCell>
        <mxCell id="Vs4MO0yzSmGj7dVC-3Ge-3" value="PK" style="shape=partialRectangle;connectable=0;fillColor=#bac8d3;top=0;left=0;bottom=0;right=0;fontStyle=1;overflow=hidden;whiteSpace=wrap;html=1;strokeColor=#23445d;" vertex="1" parent="Vs4MO0yzSmGj7dVC-3Ge-2">
          <mxGeometry width="30" height="30" as="geometry">
            <mxRectangle width="30" height="30" as="alternateBounds" />
          </mxGeometry>
        </mxCell>
        <mxCell id="Vs4MO0yzSmGj7dVC-3Ge-4" value="ID" style="shape=partialRectangle;connectable=0;fillColor=#bac8d3;top=0;left=0;bottom=0;right=0;align=left;spacingLeft=6;fontStyle=5;overflow=hidden;whiteSpace=wrap;html=1;strokeColor=#23445d;" vertex="1" parent="Vs4MO0yzSmGj7dVC-3Ge-2">
          <mxGeometry x="30" width="150" height="30" as="geometry">
            <mxRectangle width="150" height="30" as="alternateBounds" />
          </mxGeometry>
        </mxCell>
        <mxCell id="Vs4MO0yzSmGj7dVC-3Ge-5" value="" style="shape=tableRow;horizontal=0;startSize=0;swimlaneHead=0;swimlaneBody=0;fillColor=#bac8d3;collapsible=0;dropTarget=0;points=[[0,0.5],[1,0.5]];portConstraint=eastwest;top=0;left=0;right=0;bottom=0;strokeColor=#23445d;" vertex="1" parent="Vs4MO0yzSmGj7dVC-3Ge-1">
          <mxGeometry y="60" width="180" height="30" as="geometry" />
        </mxCell>
        <mxCell id="Vs4MO0yzSmGj7dVC-3Ge-6" value="" style="shape=partialRectangle;connectable=0;fillColor=#bac8d3;top=0;left=0;bottom=0;right=0;editable=1;overflow=hidden;whiteSpace=wrap;html=1;strokeColor=#23445d;" vertex="1" parent="Vs4MO0yzSmGj7dVC-3Ge-5">
          <mxGeometry width="30" height="30" as="geometry">
            <mxRectangle width="30" height="30" as="alternateBounds" />
          </mxGeometry>
        </mxCell>
        <mxCell id="Vs4MO0yzSmGj7dVC-3Ge-7" value="nom-d-utilisateur" style="shape=partialRectangle;connectable=0;fillColor=#bac8d3;top=0;left=0;bottom=0;right=0;align=left;spacingLeft=6;overflow=hidden;whiteSpace=wrap;html=1;strokeColor=#23445d;" vertex="1" parent="Vs4MO0yzSmGj7dVC-3Ge-5">
          <mxGeometry x="30" width="150" height="30" as="geometry">
            <mxRectangle width="150" height="30" as="alternateBounds" />
          </mxGeometry>
        </mxCell>
        <mxCell id="Vs4MO0yzSmGj7dVC-3Ge-8" value="" style="shape=tableRow;horizontal=0;startSize=0;swimlaneHead=0;swimlaneBody=0;fillColor=#bac8d3;collapsible=0;dropTarget=0;points=[[0,0.5],[1,0.5]];portConstraint=eastwest;top=0;left=0;right=0;bottom=0;strokeColor=#23445d;" vertex="1" parent="Vs4MO0yzSmGj7dVC-3Ge-1">
          <mxGeometry y="90" width="180" height="30" as="geometry" />
        </mxCell>
        <mxCell id="Vs4MO0yzSmGj7dVC-3Ge-9" value="" style="shape=partialRectangle;connectable=0;fillColor=#bac8d3;top=0;left=0;bottom=0;right=0;editable=1;overflow=hidden;whiteSpace=wrap;html=1;strokeColor=#23445d;" vertex="1" parent="Vs4MO0yzSmGj7dVC-3Ge-8">
          <mxGeometry width="30" height="30" as="geometry">
            <mxRectangle width="30" height="30" as="alternateBounds" />
          </mxGeometry>
        </mxCell>
        <mxCell id="Vs4MO0yzSmGj7dVC-3Ge-10" value="hash-de-mot-de-passe" style="shape=partialRectangle;connectable=0;fillColor=#bac8d3;top=0;left=0;bottom=0;right=0;align=left;spacingLeft=6;overflow=hidden;whiteSpace=wrap;html=1;strokeColor=#23445d;" vertex="1" parent="Vs4MO0yzSmGj7dVC-3Ge-8">
          <mxGeometry x="30" width="150" height="30" as="geometry">
            <mxRectangle width="150" height="30" as="alternateBounds" />
          </mxGeometry>
        </mxCell>
        <mxCell id="Vs4MO0yzSmGj7dVC-3Ge-11" value="" style="shape=tableRow;horizontal=0;startSize=0;swimlaneHead=0;swimlaneBody=0;fillColor=#bac8d3;collapsible=0;dropTarget=0;points=[[0,0.5],[1,0.5]];portConstraint=eastwest;top=0;left=0;right=0;bottom=0;strokeColor=#23445d;" vertex="1" parent="Vs4MO0yzSmGj7dVC-3Ge-1">
          <mxGeometry y="120" width="180" height="30" as="geometry" />
        </mxCell>
        <mxCell id="Vs4MO0yzSmGj7dVC-3Ge-12" value="" style="shape=partialRectangle;connectable=0;fillColor=#bac8d3;top=0;left=0;bottom=0;right=0;editable=1;overflow=hidden;whiteSpace=wrap;html=1;strokeColor=#23445d;" vertex="1" parent="Vs4MO0yzSmGj7dVC-3Ge-11">
          <mxGeometry width="30" height="30" as="geometry">
            <mxRectangle width="30" height="30" as="alternateBounds" />
          </mxGeometry>
        </mxCell>
        <mxCell id="Vs4MO0yzSmGj7dVC-3Ge-13" value="email" style="shape=partialRectangle;connectable=0;fillColor=#bac8d3;top=0;left=0;bottom=0;right=0;align=left;spacingLeft=6;overflow=hidden;whiteSpace=wrap;html=1;strokeColor=#23445d;" vertex="1" parent="Vs4MO0yzSmGj7dVC-3Ge-11">
          <mxGeometry x="30" width="150" height="30" as="geometry">
            <mxRectangle width="150" height="30" as="alternateBounds" />
          </mxGeometry>
        </mxCell>
        <mxCell id="Vs4MO0yzSmGj7dVC-3Ge-14" value="" style="shape=tableRow;horizontal=0;startSize=0;swimlaneHead=0;swimlaneBody=0;fillColor=#bac8d3;collapsible=0;dropTarget=0;points=[[0,0.5],[1,0.5]];portConstraint=eastwest;top=0;left=0;right=0;bottom=0;strokeColor=#23445d;" vertex="1" parent="Vs4MO0yzSmGj7dVC-3Ge-1">
          <mxGeometry y="150" width="180" height="30" as="geometry" />
        </mxCell>
        <mxCell id="Vs4MO0yzSmGj7dVC-3Ge-15" value="" style="shape=partialRectangle;connectable=0;fillColor=#bac8d3;top=0;left=0;bottom=0;right=0;editable=1;overflow=hidden;whiteSpace=wrap;html=1;strokeColor=#23445d;" vertex="1" parent="Vs4MO0yzSmGj7dVC-3Ge-14">
          <mxGeometry width="30" height="30" as="geometry">
            <mxRectangle width="30" height="30" as="alternateBounds" />
          </mxGeometry>
        </mxCell>
        <mxCell id="Vs4MO0yzSmGj7dVC-3Ge-16" value="nom" style="shape=partialRectangle;connectable=0;fillColor=#bac8d3;top=0;left=0;bottom=0;right=0;align=left;spacingLeft=6;overflow=hidden;whiteSpace=wrap;html=1;strokeColor=#23445d;" vertex="1" parent="Vs4MO0yzSmGj7dVC-3Ge-14">
          <mxGeometry x="30" width="150" height="30" as="geometry">
            <mxRectangle width="150" height="30" as="alternateBounds" />
          </mxGeometry>
        </mxCell>
        <mxCell id="Vs4MO0yzSmGj7dVC-3Ge-17" value="" style="shape=tableRow;horizontal=0;startSize=0;swimlaneHead=0;swimlaneBody=0;fillColor=#bac8d3;collapsible=0;dropTarget=0;points=[[0,0.5],[1,0.5]];portConstraint=eastwest;top=0;left=0;right=0;bottom=0;strokeColor=#23445d;" vertex="1" parent="Vs4MO0yzSmGj7dVC-3Ge-1">
          <mxGeometry y="180" width="180" height="30" as="geometry" />
        </mxCell>
        <mxCell id="Vs4MO0yzSmGj7dVC-3Ge-18" value="" style="shape=partialRectangle;connectable=0;fillColor=#bac8d3;top=0;left=0;bottom=0;right=0;editable=1;overflow=hidden;whiteSpace=wrap;html=1;strokeColor=#23445d;" vertex="1" parent="Vs4MO0yzSmGj7dVC-3Ge-17">
          <mxGeometry width="30" height="30" as="geometry">
            <mxRectangle width="30" height="30" as="alternateBounds" />
          </mxGeometry>
        </mxCell>
        <mxCell id="Vs4MO0yzSmGj7dVC-3Ge-19" value="prenom" style="shape=partialRectangle;connectable=0;fillColor=#bac8d3;top=0;left=0;bottom=0;right=0;align=left;spacingLeft=6;overflow=hidden;whiteSpace=wrap;html=1;strokeColor=#23445d;" vertex="1" parent="Vs4MO0yzSmGj7dVC-3Ge-17">
          <mxGeometry x="30" width="150" height="30" as="geometry">
            <mxRectangle width="150" height="30" as="alternateBounds" />
          </mxGeometry>
        </mxCell>
        <mxCell id="Vs4MO0yzSmGj7dVC-3Ge-20" value="" style="shape=tableRow;horizontal=0;startSize=0;swimlaneHead=0;swimlaneBody=0;fillColor=#bac8d3;collapsible=0;dropTarget=0;points=[[0,0.5],[1,0.5]];portConstraint=eastwest;top=0;left=0;right=0;bottom=0;strokeColor=#23445d;" vertex="1" parent="Vs4MO0yzSmGj7dVC-3Ge-1">
          <mxGeometry y="210" width="180" height="30" as="geometry" />
        </mxCell>
        <mxCell id="Vs4MO0yzSmGj7dVC-3Ge-21" value="" style="shape=partialRectangle;connectable=0;fillColor=#bac8d3;top=0;left=0;bottom=0;right=0;editable=1;overflow=hidden;whiteSpace=wrap;html=1;strokeColor=#23445d;" vertex="1" parent="Vs4MO0yzSmGj7dVC-3Ge-20">
          <mxGeometry width="30" height="30" as="geometry">
            <mxRectangle width="30" height="30" as="alternateBounds" />
          </mxGeometry>
        </mxCell>
        <mxCell id="Vs4MO0yzSmGj7dVC-3Ge-22" value="date-de-naissance" style="shape=partialRectangle;connectable=0;fillColor=#bac8d3;top=0;left=0;bottom=0;right=0;align=left;spacingLeft=6;overflow=hidden;whiteSpace=wrap;html=1;strokeColor=#23445d;" vertex="1" parent="Vs4MO0yzSmGj7dVC-3Ge-20">
          <mxGeometry x="30" width="150" height="30" as="geometry">
            <mxRectangle width="150" height="30" as="alternateBounds" />
          </mxGeometry>
        </mxCell>
        <mxCell id="Vs4MO0yzSmGj7dVC-3Ge-23" value="" style="shape=tableRow;horizontal=0;startSize=0;swimlaneHead=0;swimlaneBody=0;fillColor=#bac8d3;collapsible=0;dropTarget=0;points=[[0,0.5],[1,0.5]];portConstraint=eastwest;top=0;left=0;right=0;bottom=0;strokeColor=#23445d;" vertex="1" parent="Vs4MO0yzSmGj7dVC-3Ge-1">
          <mxGeometry y="240" width="180" height="30" as="geometry" />
        </mxCell>
        <mxCell id="Vs4MO0yzSmGj7dVC-3Ge-24" value="" style="shape=partialRectangle;connectable=0;fillColor=#bac8d3;top=0;left=0;bottom=0;right=0;editable=1;overflow=hidden;whiteSpace=wrap;html=1;strokeColor=#23445d;" vertex="1" parent="Vs4MO0yzSmGj7dVC-3Ge-23">
          <mxGeometry width="30" height="30" as="geometry">
            <mxRectangle width="30" height="30" as="alternateBounds" />
          </mxGeometry>
        </mxCell>
        <mxCell id="Vs4MO0yzSmGj7dVC-3Ge-25" value="photo-de-profil" style="shape=partialRectangle;connectable=0;fillColor=#bac8d3;top=0;left=0;bottom=0;right=0;align=left;spacingLeft=6;overflow=hidden;whiteSpace=wrap;html=1;strokeColor=#23445d;" vertex="1" parent="Vs4MO0yzSmGj7dVC-3Ge-23">
          <mxGeometry x="30" width="150" height="30" as="geometry">
            <mxRectangle width="150" height="30" as="alternateBounds" />
          </mxGeometry>
        </mxCell>
        <mxCell id="Vs4MO0yzSmGj7dVC-3Ge-26" value="" style="shape=tableRow;horizontal=0;startSize=0;swimlaneHead=0;swimlaneBody=0;fillColor=#bac8d3;collapsible=0;dropTarget=0;points=[[0,0.5],[1,0.5]];portConstraint=eastwest;top=0;left=0;right=0;bottom=0;strokeColor=#23445d;" vertex="1" parent="Vs4MO0yzSmGj7dVC-3Ge-1">
          <mxGeometry y="270" width="180" height="30" as="geometry" />
        </mxCell>
        <mxCell id="Vs4MO0yzSmGj7dVC-3Ge-27" value="" style="shape=partialRectangle;connectable=0;fillColor=#bac8d3;top=0;left=0;bottom=0;right=0;editable=1;overflow=hidden;whiteSpace=wrap;html=1;strokeColor=#23445d;" vertex="1" parent="Vs4MO0yzSmGj7dVC-3Ge-26">
          <mxGeometry width="30" height="30" as="geometry">
            <mxRectangle width="30" height="30" as="alternateBounds" />
          </mxGeometry>
        </mxCell>
        <mxCell id="Vs4MO0yzSmGj7dVC-3Ge-28" value="date-de-creation" style="shape=partialRectangle;connectable=0;fillColor=#bac8d3;top=0;left=0;bottom=0;right=0;align=left;spacingLeft=6;overflow=hidden;whiteSpace=wrap;html=1;strokeColor=#23445d;" vertex="1" parent="Vs4MO0yzSmGj7dVC-3Ge-26">
          <mxGeometry x="30" width="150" height="30" as="geometry">
            <mxRectangle width="150" height="30" as="alternateBounds" />
          </mxGeometry>
        </mxCell>
        <mxCell id="Vs4MO0yzSmGj7dVC-3Ge-95" style="edgeStyle=orthogonalEdgeStyle;rounded=0;orthogonalLoop=1;jettySize=auto;html=1;exitX=1;exitY=0;exitDx=0;exitDy=0;entryX=0;entryY=0;entryDx=0;entryDy=0;endArrow=none;endFill=0;fillColor=#bac8d3;strokeColor=#23445d;" edge="1" parent="1" source="Vs4MO0yzSmGj7dVC-3Ge-29" target="Vs4MO0yzSmGj7dVC-3Ge-42">
          <mxGeometry relative="1" as="geometry" />
        </mxCell>
        <mxCell id="Vs4MO0yzSmGj7dVC-3Ge-29" value="COMMENT" style="shape=table;startSize=30;container=1;collapsible=1;childLayout=tableLayout;fixedRows=1;rowLines=0;fontStyle=1;align=center;resizeLast=1;html=1;fillColor=#bac8d3;strokeColor=#23445d;" vertex="1" parent="1">
          <mxGeometry x="1060" y="560" width="180" height="180" as="geometry" />
        </mxCell>
        <mxCell id="Vs4MO0yzSmGj7dVC-3Ge-30" value="" style="shape=tableRow;horizontal=0;startSize=0;swimlaneHead=0;swimlaneBody=0;fillColor=#bac8d3;collapsible=0;dropTarget=0;points=[[0,0.5],[1,0.5]];portConstraint=eastwest;top=0;left=0;right=0;bottom=1;strokeColor=#23445d;" vertex="1" parent="Vs4MO0yzSmGj7dVC-3Ge-29">
          <mxGeometry y="30" width="180" height="30" as="geometry" />
        </mxCell>
        <mxCell id="Vs4MO0yzSmGj7dVC-3Ge-31" value="PK" style="shape=partialRectangle;connectable=0;fillColor=#bac8d3;top=0;left=0;bottom=0;right=0;fontStyle=1;overflow=hidden;whiteSpace=wrap;html=1;strokeColor=#23445d;" vertex="1" parent="Vs4MO0yzSmGj7dVC-3Ge-30">
          <mxGeometry width="30" height="30" as="geometry">
            <mxRectangle width="30" height="30" as="alternateBounds" />
          </mxGeometry>
        </mxCell>
        <mxCell id="Vs4MO0yzSmGj7dVC-3Ge-32" value="ID" style="shape=partialRectangle;connectable=0;fillColor=#bac8d3;top=0;left=0;bottom=0;right=0;align=left;spacingLeft=6;fontStyle=5;overflow=hidden;whiteSpace=wrap;html=1;strokeColor=#23445d;" vertex="1" parent="Vs4MO0yzSmGj7dVC-3Ge-30">
          <mxGeometry x="30" width="150" height="30" as="geometry">
            <mxRectangle width="150" height="30" as="alternateBounds" />
          </mxGeometry>
        </mxCell>
        <mxCell id="sBbUG8jKWfK9Sq-vc8ym-22" value="" style="shape=tableRow;horizontal=0;startSize=0;swimlaneHead=0;swimlaneBody=0;fillColor=#bac8d3;collapsible=0;dropTarget=0;points=[[0,0.5],[1,0.5]];portConstraint=eastwest;top=0;left=0;right=0;bottom=1;strokeColor=#23445d;" vertex="1" parent="Vs4MO0yzSmGj7dVC-3Ge-29">
          <mxGeometry y="60" width="180" height="30" as="geometry" />
        </mxCell>
        <mxCell id="sBbUG8jKWfK9Sq-vc8ym-23" value="FK" style="shape=partialRectangle;connectable=0;fillColor=#bac8d3;top=0;left=0;bottom=0;right=0;fontStyle=1;overflow=hidden;whiteSpace=wrap;html=1;strokeColor=#23445d;" vertex="1" parent="sBbUG8jKWfK9Sq-vc8ym-22">
          <mxGeometry width="30" height="30" as="geometry">
            <mxRectangle width="30" height="30" as="alternateBounds" />
          </mxGeometry>
        </mxCell>
        <mxCell id="sBbUG8jKWfK9Sq-vc8ym-24" value="user-id" style="shape=partialRectangle;connectable=0;fillColor=#bac8d3;top=0;left=0;bottom=0;right=0;align=left;spacingLeft=6;fontStyle=5;overflow=hidden;whiteSpace=wrap;html=1;strokeColor=#23445d;" vertex="1" parent="sBbUG8jKWfK9Sq-vc8ym-22">
          <mxGeometry x="30" width="150" height="30" as="geometry">
            <mxRectangle width="150" height="30" as="alternateBounds" />
          </mxGeometry>
        </mxCell>
        <mxCell id="sBbUG8jKWfK9Sq-vc8ym-25" value="" style="shape=tableRow;horizontal=0;startSize=0;swimlaneHead=0;swimlaneBody=0;fillColor=#bac8d3;collapsible=0;dropTarget=0;points=[[0,0.5],[1,0.5]];portConstraint=eastwest;top=0;left=0;right=0;bottom=1;strokeColor=#23445d;" vertex="1" parent="Vs4MO0yzSmGj7dVC-3Ge-29">
          <mxGeometry y="90" width="180" height="30" as="geometry" />
        </mxCell>
        <mxCell id="sBbUG8jKWfK9Sq-vc8ym-26" value="FK" style="shape=partialRectangle;connectable=0;fillColor=#bac8d3;top=0;left=0;bottom=0;right=0;fontStyle=1;overflow=hidden;whiteSpace=wrap;html=1;strokeColor=#23445d;" vertex="1" parent="sBbUG8jKWfK9Sq-vc8ym-25">
          <mxGeometry width="30" height="30" as="geometry">
            <mxRectangle width="30" height="30" as="alternateBounds" />
          </mxGeometry>
        </mxCell>
        <mxCell id="sBbUG8jKWfK9Sq-vc8ym-27" value="post-id" style="shape=partialRectangle;connectable=0;fillColor=#bac8d3;top=0;left=0;bottom=0;right=0;align=left;spacingLeft=6;fontStyle=5;overflow=hidden;whiteSpace=wrap;html=1;strokeColor=#23445d;" vertex="1" parent="sBbUG8jKWfK9Sq-vc8ym-25">
          <mxGeometry x="30" width="150" height="30" as="geometry">
            <mxRectangle width="150" height="30" as="alternateBounds" />
          </mxGeometry>
        </mxCell>
        <mxCell id="Vs4MO0yzSmGj7dVC-3Ge-33" value="" style="shape=tableRow;horizontal=0;startSize=0;swimlaneHead=0;swimlaneBody=0;fillColor=#bac8d3;collapsible=0;dropTarget=0;points=[[0,0.5],[1,0.5]];portConstraint=eastwest;top=0;left=0;right=0;bottom=0;strokeColor=#23445d;" vertex="1" parent="Vs4MO0yzSmGj7dVC-3Ge-29">
          <mxGeometry y="120" width="180" height="30" as="geometry" />
        </mxCell>
        <mxCell id="Vs4MO0yzSmGj7dVC-3Ge-34" value="" style="shape=partialRectangle;connectable=0;fillColor=#bac8d3;top=0;left=0;bottom=0;right=0;editable=1;overflow=hidden;whiteSpace=wrap;html=1;strokeColor=#23445d;" vertex="1" parent="Vs4MO0yzSmGj7dVC-3Ge-33">
          <mxGeometry width="30" height="30" as="geometry">
            <mxRectangle width="30" height="30" as="alternateBounds" />
          </mxGeometry>
        </mxCell>
        <mxCell id="Vs4MO0yzSmGj7dVC-3Ge-35" value="texte" style="shape=partialRectangle;connectable=0;fillColor=#bac8d3;top=0;left=0;bottom=0;right=0;align=left;spacingLeft=6;overflow=hidden;whiteSpace=wrap;html=1;strokeColor=#23445d;" vertex="1" parent="Vs4MO0yzSmGj7dVC-3Ge-33">
          <mxGeometry x="30" width="150" height="30" as="geometry">
            <mxRectangle width="150" height="30" as="alternateBounds" />
          </mxGeometry>
        </mxCell>
        <mxCell id="Vs4MO0yzSmGj7dVC-3Ge-36" value="" style="shape=tableRow;horizontal=0;startSize=0;swimlaneHead=0;swimlaneBody=0;fillColor=#bac8d3;collapsible=0;dropTarget=0;points=[[0,0.5],[1,0.5]];portConstraint=eastwest;top=0;left=0;right=0;bottom=0;strokeColor=#23445d;" vertex="1" parent="Vs4MO0yzSmGj7dVC-3Ge-29">
          <mxGeometry y="150" width="180" height="30" as="geometry" />
        </mxCell>
        <mxCell id="Vs4MO0yzSmGj7dVC-3Ge-37" value="" style="shape=partialRectangle;connectable=0;fillColor=#bac8d3;top=0;left=0;bottom=0;right=0;editable=1;overflow=hidden;whiteSpace=wrap;html=1;strokeColor=#23445d;" vertex="1" parent="Vs4MO0yzSmGj7dVC-3Ge-36">
          <mxGeometry width="30" height="30" as="geometry">
            <mxRectangle width="30" height="30" as="alternateBounds" />
          </mxGeometry>
        </mxCell>
        <mxCell id="Vs4MO0yzSmGj7dVC-3Ge-38" value="horodatage" style="shape=partialRectangle;connectable=0;fillColor=#bac8d3;top=0;left=0;bottom=0;right=0;align=left;spacingLeft=6;overflow=hidden;whiteSpace=wrap;html=1;strokeColor=#23445d;" vertex="1" parent="Vs4MO0yzSmGj7dVC-3Ge-36">
          <mxGeometry x="30" width="150" height="30" as="geometry">
            <mxRectangle width="150" height="30" as="alternateBounds" />
          </mxGeometry>
        </mxCell>
        <mxCell id="Vs4MO0yzSmGj7dVC-3Ge-42" value="POST" style="shape=table;startSize=30;container=1;collapsible=1;childLayout=tableLayout;fixedRows=1;rowLines=0;fontStyle=1;align=center;resizeLast=1;html=1;fillColor=#bac8d3;strokeColor=#23445d;" vertex="1" parent="1">
          <mxGeometry x="1370" y="713" width="180" height="150" as="geometry" />
        </mxCell>
        <mxCell id="Vs4MO0yzSmGj7dVC-3Ge-43" value="" style="shape=tableRow;horizontal=0;startSize=0;swimlaneHead=0;swimlaneBody=0;fillColor=#bac8d3;collapsible=0;dropTarget=0;points=[[0,0.5],[1,0.5]];portConstraint=eastwest;top=0;left=0;right=0;bottom=1;strokeColor=#23445d;" vertex="1" parent="Vs4MO0yzSmGj7dVC-3Ge-42">
          <mxGeometry y="30" width="180" height="30" as="geometry" />
        </mxCell>
        <mxCell id="Vs4MO0yzSmGj7dVC-3Ge-44" value="PK" style="shape=partialRectangle;connectable=0;fillColor=#bac8d3;top=0;left=0;bottom=0;right=0;fontStyle=1;overflow=hidden;whiteSpace=wrap;html=1;strokeColor=#23445d;" vertex="1" parent="Vs4MO0yzSmGj7dVC-3Ge-43">
          <mxGeometry width="30" height="30" as="geometry">
            <mxRectangle width="30" height="30" as="alternateBounds" />
          </mxGeometry>
        </mxCell>
        <mxCell id="Vs4MO0yzSmGj7dVC-3Ge-45" value="ID" style="shape=partialRectangle;connectable=0;fillColor=#bac8d3;top=0;left=0;bottom=0;right=0;align=left;spacingLeft=6;fontStyle=5;overflow=hidden;whiteSpace=wrap;html=1;strokeColor=#23445d;" vertex="1" parent="Vs4MO0yzSmGj7dVC-3Ge-43">
          <mxGeometry x="30" width="150" height="30" as="geometry">
            <mxRectangle width="150" height="30" as="alternateBounds" />
          </mxGeometry>
        </mxCell>
        <mxCell id="sBbUG8jKWfK9Sq-vc8ym-19" value="" style="shape=tableRow;horizontal=0;startSize=0;swimlaneHead=0;swimlaneBody=0;fillColor=#bac8d3;collapsible=0;dropTarget=0;points=[[0,0.5],[1,0.5]];portConstraint=eastwest;top=0;left=0;right=0;bottom=1;strokeColor=#23445d;" vertex="1" parent="Vs4MO0yzSmGj7dVC-3Ge-42">
          <mxGeometry y="60" width="180" height="30" as="geometry" />
        </mxCell>
        <mxCell id="sBbUG8jKWfK9Sq-vc8ym-20" value="FK" style="shape=partialRectangle;connectable=0;fillColor=#bac8d3;top=0;left=0;bottom=0;right=0;fontStyle=1;overflow=hidden;whiteSpace=wrap;html=1;strokeColor=#23445d;" vertex="1" parent="sBbUG8jKWfK9Sq-vc8ym-19">
          <mxGeometry width="30" height="30" as="geometry">
            <mxRectangle width="30" height="30" as="alternateBounds" />
          </mxGeometry>
        </mxCell>
        <mxCell id="sBbUG8jKWfK9Sq-vc8ym-21" value="user-id" style="shape=partialRectangle;connectable=0;fillColor=#bac8d3;top=0;left=0;bottom=0;right=0;align=left;spacingLeft=6;fontStyle=5;overflow=hidden;whiteSpace=wrap;html=1;strokeColor=#23445d;" vertex="1" parent="sBbUG8jKWfK9Sq-vc8ym-19">
          <mxGeometry x="30" width="150" height="30" as="geometry">
            <mxRectangle width="150" height="30" as="alternateBounds" />
          </mxGeometry>
        </mxCell>
        <mxCell id="Vs4MO0yzSmGj7dVC-3Ge-46" value="" style="shape=tableRow;horizontal=0;startSize=0;swimlaneHead=0;swimlaneBody=0;fillColor=#bac8d3;collapsible=0;dropTarget=0;points=[[0,0.5],[1,0.5]];portConstraint=eastwest;top=0;left=0;right=0;bottom=0;strokeColor=#23445d;" vertex="1" parent="Vs4MO0yzSmGj7dVC-3Ge-42">
          <mxGeometry y="90" width="180" height="30" as="geometry" />
        </mxCell>
        <mxCell id="Vs4MO0yzSmGj7dVC-3Ge-47" value="" style="shape=partialRectangle;connectable=0;fillColor=#bac8d3;top=0;left=0;bottom=0;right=0;editable=1;overflow=hidden;whiteSpace=wrap;html=1;strokeColor=#23445d;" vertex="1" parent="Vs4MO0yzSmGj7dVC-3Ge-46">
          <mxGeometry width="30" height="30" as="geometry">
            <mxRectangle width="30" height="30" as="alternateBounds" />
          </mxGeometry>
        </mxCell>
        <mxCell id="Vs4MO0yzSmGj7dVC-3Ge-48" value="texte" style="shape=partialRectangle;connectable=0;fillColor=#bac8d3;top=0;left=0;bottom=0;right=0;align=left;spacingLeft=6;overflow=hidden;whiteSpace=wrap;html=1;strokeColor=#23445d;" vertex="1" parent="Vs4MO0yzSmGj7dVC-3Ge-46">
          <mxGeometry x="30" width="150" height="30" as="geometry">
            <mxRectangle width="150" height="30" as="alternateBounds" />
          </mxGeometry>
        </mxCell>
        <mxCell id="Vs4MO0yzSmGj7dVC-3Ge-49" value="" style="shape=tableRow;horizontal=0;startSize=0;swimlaneHead=0;swimlaneBody=0;fillColor=#bac8d3;collapsible=0;dropTarget=0;points=[[0,0.5],[1,0.5]];portConstraint=eastwest;top=0;left=0;right=0;bottom=0;strokeColor=#23445d;" vertex="1" parent="Vs4MO0yzSmGj7dVC-3Ge-42">
          <mxGeometry y="120" width="180" height="30" as="geometry" />
        </mxCell>
        <mxCell id="Vs4MO0yzSmGj7dVC-3Ge-50" value="" style="shape=partialRectangle;connectable=0;fillColor=#bac8d3;top=0;left=0;bottom=0;right=0;editable=1;overflow=hidden;whiteSpace=wrap;html=1;strokeColor=#23445d;" vertex="1" parent="Vs4MO0yzSmGj7dVC-3Ge-49">
          <mxGeometry width="30" height="30" as="geometry">
            <mxRectangle width="30" height="30" as="alternateBounds" />
          </mxGeometry>
        </mxCell>
        <mxCell id="Vs4MO0yzSmGj7dVC-3Ge-51" value="horodatage" style="shape=partialRectangle;connectable=0;fillColor=#bac8d3;top=0;left=0;bottom=0;right=0;align=left;spacingLeft=6;overflow=hidden;whiteSpace=wrap;html=1;strokeColor=#23445d;" vertex="1" parent="Vs4MO0yzSmGj7dVC-3Ge-49">
          <mxGeometry x="30" width="150" height="30" as="geometry">
            <mxRectangle width="150" height="30" as="alternateBounds" />
          </mxGeometry>
        </mxCell>
        <mxCell id="Vs4MO0yzSmGj7dVC-3Ge-55" value="FAVORI" style="shape=table;startSize=30;container=1;collapsible=1;childLayout=tableLayout;fixedRows=1;rowLines=0;fontStyle=1;align=center;resizeLast=1;html=1;fillColor=#bac8d3;strokeColor=#23445d;" vertex="1" parent="1">
          <mxGeometry x="986.5" y="890" width="180" height="150" as="geometry" />
        </mxCell>
        <mxCell id="Vs4MO0yzSmGj7dVC-3Ge-56" value="" style="shape=tableRow;horizontal=0;startSize=0;swimlaneHead=0;swimlaneBody=0;fillColor=#bac8d3;collapsible=0;dropTarget=0;points=[[0,0.5],[1,0.5]];portConstraint=eastwest;top=0;left=0;right=0;bottom=1;strokeColor=#23445d;" vertex="1" parent="Vs4MO0yzSmGj7dVC-3Ge-55">
          <mxGeometry y="30" width="180" height="30" as="geometry" />
        </mxCell>
        <mxCell id="Vs4MO0yzSmGj7dVC-3Ge-57" value="PK" style="shape=partialRectangle;connectable=0;fillColor=#bac8d3;top=0;left=0;bottom=0;right=0;fontStyle=1;overflow=hidden;whiteSpace=wrap;html=1;strokeColor=#23445d;" vertex="1" parent="Vs4MO0yzSmGj7dVC-3Ge-56">
          <mxGeometry width="30" height="30" as="geometry">
            <mxRectangle width="30" height="30" as="alternateBounds" />
          </mxGeometry>
        </mxCell>
        <mxCell id="Vs4MO0yzSmGj7dVC-3Ge-58" value="ID" style="shape=partialRectangle;connectable=0;fillColor=#bac8d3;top=0;left=0;bottom=0;right=0;align=left;spacingLeft=6;fontStyle=5;overflow=hidden;whiteSpace=wrap;html=1;strokeColor=#23445d;" vertex="1" parent="Vs4MO0yzSmGj7dVC-3Ge-56">
          <mxGeometry x="30" width="150" height="30" as="geometry">
            <mxRectangle width="150" height="30" as="alternateBounds" />
          </mxGeometry>
        </mxCell>
        <mxCell id="Vs4MO0yzSmGj7dVC-3Ge-59" value="" style="shape=tableRow;horizontal=0;startSize=0;swimlaneHead=0;swimlaneBody=0;fillColor=#bac8d3;collapsible=0;dropTarget=0;points=[[0,0.5],[1,0.5]];portConstraint=eastwest;top=0;left=0;right=0;bottom=0;strokeColor=#23445d;" vertex="1" parent="Vs4MO0yzSmGj7dVC-3Ge-55">
          <mxGeometry y="60" width="180" height="30" as="geometry" />
        </mxCell>
        <mxCell id="Vs4MO0yzSmGj7dVC-3Ge-60" value="" style="shape=partialRectangle;connectable=0;fillColor=#bac8d3;top=0;left=0;bottom=0;right=0;editable=1;overflow=hidden;whiteSpace=wrap;html=1;strokeColor=#23445d;" vertex="1" parent="Vs4MO0yzSmGj7dVC-3Ge-59">
          <mxGeometry width="30" height="30" as="geometry">
            <mxRectangle width="30" height="30" as="alternateBounds" />
          </mxGeometry>
        </mxCell>
        <mxCell id="Vs4MO0yzSmGj7dVC-3Ge-61" value="Timestep" style="shape=partialRectangle;connectable=0;fillColor=#bac8d3;top=0;left=0;bottom=0;right=0;align=left;spacingLeft=6;overflow=hidden;whiteSpace=wrap;html=1;strokeColor=#23445d;" vertex="1" parent="Vs4MO0yzSmGj7dVC-3Ge-59">
          <mxGeometry x="30" width="150" height="30" as="geometry">
            <mxRectangle width="150" height="30" as="alternateBounds" />
          </mxGeometry>
        </mxCell>
        <mxCell id="Vs4MO0yzSmGj7dVC-3Ge-62" value="" style="shape=tableRow;horizontal=0;startSize=0;swimlaneHead=0;swimlaneBody=0;fillColor=#bac8d3;collapsible=0;dropTarget=0;points=[[0,0.5],[1,0.5]];portConstraint=eastwest;top=0;left=0;right=0;bottom=0;strokeColor=#23445d;" vertex="1" parent="Vs4MO0yzSmGj7dVC-3Ge-55">
          <mxGeometry y="90" width="180" height="30" as="geometry" />
        </mxCell>
        <mxCell id="Vs4MO0yzSmGj7dVC-3Ge-63" value="" style="shape=partialRectangle;connectable=0;fillColor=#bac8d3;top=0;left=0;bottom=0;right=0;editable=1;overflow=hidden;whiteSpace=wrap;html=1;strokeColor=#23445d;" vertex="1" parent="Vs4MO0yzSmGj7dVC-3Ge-62">
          <mxGeometry width="30" height="30" as="geometry">
            <mxRectangle width="30" height="30" as="alternateBounds" />
          </mxGeometry>
        </mxCell>
        <mxCell id="Vs4MO0yzSmGj7dVC-3Ge-64" value="Row 2" style="shape=partialRectangle;connectable=0;fillColor=#bac8d3;top=0;left=0;bottom=0;right=0;align=left;spacingLeft=6;overflow=hidden;whiteSpace=wrap;html=1;strokeColor=#23445d;" vertex="1" parent="Vs4MO0yzSmGj7dVC-3Ge-62">
          <mxGeometry x="30" width="150" height="30" as="geometry">
            <mxRectangle width="150" height="30" as="alternateBounds" />
          </mxGeometry>
        </mxCell>
        <mxCell id="Vs4MO0yzSmGj7dVC-3Ge-65" value="" style="shape=tableRow;horizontal=0;startSize=0;swimlaneHead=0;swimlaneBody=0;fillColor=#bac8d3;collapsible=0;dropTarget=0;points=[[0,0.5],[1,0.5]];portConstraint=eastwest;top=0;left=0;right=0;bottom=0;strokeColor=#23445d;" vertex="1" parent="Vs4MO0yzSmGj7dVC-3Ge-55">
          <mxGeometry y="120" width="180" height="30" as="geometry" />
        </mxCell>
        <mxCell id="Vs4MO0yzSmGj7dVC-3Ge-66" value="" style="shape=partialRectangle;connectable=0;fillColor=#bac8d3;top=0;left=0;bottom=0;right=0;editable=1;overflow=hidden;whiteSpace=wrap;html=1;strokeColor=#23445d;" vertex="1" parent="Vs4MO0yzSmGj7dVC-3Ge-65">
          <mxGeometry width="30" height="30" as="geometry">
            <mxRectangle width="30" height="30" as="alternateBounds" />
          </mxGeometry>
        </mxCell>
        <mxCell id="Vs4MO0yzSmGj7dVC-3Ge-67" value="Row 3" style="shape=partialRectangle;connectable=0;fillColor=#bac8d3;top=0;left=0;bottom=0;right=0;align=left;spacingLeft=6;overflow=hidden;whiteSpace=wrap;html=1;strokeColor=#23445d;" vertex="1" parent="Vs4MO0yzSmGj7dVC-3Ge-65">
          <mxGeometry x="30" width="150" height="30" as="geometry">
            <mxRectangle width="150" height="30" as="alternateBounds" />
          </mxGeometry>
        </mxCell>
        <mxCell id="Vs4MO0yzSmGj7dVC-3Ge-68" value="REPOST" style="shape=table;startSize=30;container=1;collapsible=1;childLayout=tableLayout;fixedRows=1;rowLines=0;fontStyle=1;align=center;resizeLast=1;html=1;fillColor=#bac8d3;strokeColor=#23445d;" vertex="1" parent="1">
          <mxGeometry x="970" y="1060" width="180" height="150" as="geometry" />
        </mxCell>
        <mxCell id="Vs4MO0yzSmGj7dVC-3Ge-69" value="" style="shape=tableRow;horizontal=0;startSize=0;swimlaneHead=0;swimlaneBody=0;fillColor=#bac8d3;collapsible=0;dropTarget=0;points=[[0,0.5],[1,0.5]];portConstraint=eastwest;top=0;left=0;right=0;bottom=1;strokeColor=#23445d;" vertex="1" parent="Vs4MO0yzSmGj7dVC-3Ge-68">
          <mxGeometry y="30" width="180" height="30" as="geometry" />
        </mxCell>
        <mxCell id="Vs4MO0yzSmGj7dVC-3Ge-70" value="PK" style="shape=partialRectangle;connectable=0;fillColor=#bac8d3;top=0;left=0;bottom=0;right=0;fontStyle=1;overflow=hidden;whiteSpace=wrap;html=1;strokeColor=#23445d;" vertex="1" parent="Vs4MO0yzSmGj7dVC-3Ge-69">
          <mxGeometry width="30" height="30" as="geometry">
            <mxRectangle width="30" height="30" as="alternateBounds" />
          </mxGeometry>
        </mxCell>
        <mxCell id="Vs4MO0yzSmGj7dVC-3Ge-71" value="ID" style="shape=partialRectangle;connectable=0;fillColor=#bac8d3;top=0;left=0;bottom=0;right=0;align=left;spacingLeft=6;fontStyle=5;overflow=hidden;whiteSpace=wrap;html=1;strokeColor=#23445d;" vertex="1" parent="Vs4MO0yzSmGj7dVC-3Ge-69">
          <mxGeometry x="30" width="150" height="30" as="geometry">
            <mxRectangle width="150" height="30" as="alternateBounds" />
          </mxGeometry>
        </mxCell>
        <mxCell id="Vs4MO0yzSmGj7dVC-3Ge-72" value="" style="shape=tableRow;horizontal=0;startSize=0;swimlaneHead=0;swimlaneBody=0;fillColor=#bac8d3;collapsible=0;dropTarget=0;points=[[0,0.5],[1,0.5]];portConstraint=eastwest;top=0;left=0;right=0;bottom=0;strokeColor=#23445d;" vertex="1" parent="Vs4MO0yzSmGj7dVC-3Ge-68">
          <mxGeometry y="60" width="180" height="30" as="geometry" />
        </mxCell>
        <mxCell id="Vs4MO0yzSmGj7dVC-3Ge-73" value="FK" style="shape=partialRectangle;connectable=0;fillColor=#bac8d3;top=0;left=0;bottom=0;right=0;editable=1;overflow=hidden;whiteSpace=wrap;html=1;strokeColor=#23445d;" vertex="1" parent="Vs4MO0yzSmGj7dVC-3Ge-72">
          <mxGeometry width="30" height="30" as="geometry">
            <mxRectangle width="30" height="30" as="alternateBounds" />
          </mxGeometry>
        </mxCell>
        <mxCell id="Vs4MO0yzSmGj7dVC-3Ge-74" value="user-id" style="shape=partialRectangle;connectable=0;fillColor=#bac8d3;top=0;left=0;bottom=0;right=0;align=left;spacingLeft=6;overflow=hidden;whiteSpace=wrap;html=1;strokeColor=#23445d;" vertex="1" parent="Vs4MO0yzSmGj7dVC-3Ge-72">
          <mxGeometry x="30" width="150" height="30" as="geometry">
            <mxRectangle width="150" height="30" as="alternateBounds" />
          </mxGeometry>
        </mxCell>
        <mxCell id="Vs4MO0yzSmGj7dVC-3Ge-75" value="" style="shape=tableRow;horizontal=0;startSize=0;swimlaneHead=0;swimlaneBody=0;fillColor=#bac8d3;collapsible=0;dropTarget=0;points=[[0,0.5],[1,0.5]];portConstraint=eastwest;top=0;left=0;right=0;bottom=0;strokeColor=#23445d;" vertex="1" parent="Vs4MO0yzSmGj7dVC-3Ge-68">
          <mxGeometry y="90" width="180" height="30" as="geometry" />
        </mxCell>
        <mxCell id="Vs4MO0yzSmGj7dVC-3Ge-76" value="FK" style="shape=partialRectangle;connectable=0;fillColor=#bac8d3;top=0;left=0;bottom=0;right=0;editable=1;overflow=hidden;whiteSpace=wrap;html=1;strokeColor=#23445d;" vertex="1" parent="Vs4MO0yzSmGj7dVC-3Ge-75">
          <mxGeometry width="30" height="30" as="geometry">
            <mxRectangle width="30" height="30" as="alternateBounds" />
          </mxGeometry>
        </mxCell>
        <mxCell id="Vs4MO0yzSmGj7dVC-3Ge-77" value="post-id" style="shape=partialRectangle;connectable=0;fillColor=#bac8d3;top=0;left=0;bottom=0;right=0;align=left;spacingLeft=6;overflow=hidden;whiteSpace=wrap;html=1;strokeColor=#23445d;" vertex="1" parent="Vs4MO0yzSmGj7dVC-3Ge-75">
          <mxGeometry x="30" width="150" height="30" as="geometry">
            <mxRectangle width="150" height="30" as="alternateBounds" />
          </mxGeometry>
        </mxCell>
        <mxCell id="Vs4MO0yzSmGj7dVC-3Ge-78" value="" style="shape=tableRow;horizontal=0;startSize=0;swimlaneHead=0;swimlaneBody=0;fillColor=#bac8d3;collapsible=0;dropTarget=0;points=[[0,0.5],[1,0.5]];portConstraint=eastwest;top=0;left=0;right=0;bottom=0;strokeColor=#23445d;" vertex="1" parent="Vs4MO0yzSmGj7dVC-3Ge-68">
          <mxGeometry y="120" width="180" height="30" as="geometry" />
        </mxCell>
        <mxCell id="Vs4MO0yzSmGj7dVC-3Ge-79" value="" style="shape=partialRectangle;connectable=0;fillColor=#bac8d3;top=0;left=0;bottom=0;right=0;editable=1;overflow=hidden;whiteSpace=wrap;html=1;strokeColor=#23445d;" vertex="1" parent="Vs4MO0yzSmGj7dVC-3Ge-78">
          <mxGeometry width="30" height="30" as="geometry">
            <mxRectangle width="30" height="30" as="alternateBounds" />
          </mxGeometry>
        </mxCell>
        <mxCell id="Vs4MO0yzSmGj7dVC-3Ge-80" value="Row 3" style="shape=partialRectangle;connectable=0;fillColor=#bac8d3;top=0;left=0;bottom=0;right=0;align=left;spacingLeft=6;overflow=hidden;whiteSpace=wrap;html=1;strokeColor=#23445d;" vertex="1" parent="Vs4MO0yzSmGj7dVC-3Ge-78">
          <mxGeometry x="30" width="150" height="30" as="geometry">
            <mxRectangle width="150" height="30" as="alternateBounds" />
          </mxGeometry>
        </mxCell>
        <mxCell id="Vs4MO0yzSmGj7dVC-3Ge-81" value="CITATION" style="shape=table;startSize=30;container=1;collapsible=1;childLayout=tableLayout;fixedRows=1;rowLines=0;fontStyle=1;align=center;resizeLast=1;html=1;fillColor=#bac8d3;strokeColor=#23445d;" vertex="1" parent="1">
          <mxGeometry x="980" y="1230" width="180" height="150" as="geometry" />
        </mxCell>
        <mxCell id="Vs4MO0yzSmGj7dVC-3Ge-82" value="" style="shape=tableRow;horizontal=0;startSize=0;swimlaneHead=0;swimlaneBody=0;fillColor=#bac8d3;collapsible=0;dropTarget=0;points=[[0,0.5],[1,0.5]];portConstraint=eastwest;top=0;left=0;right=0;bottom=1;strokeColor=#23445d;" vertex="1" parent="Vs4MO0yzSmGj7dVC-3Ge-81">
          <mxGeometry y="30" width="180" height="30" as="geometry" />
        </mxCell>
        <mxCell id="Vs4MO0yzSmGj7dVC-3Ge-83" value="PK" style="shape=partialRectangle;connectable=0;fillColor=#bac8d3;top=0;left=0;bottom=0;right=0;fontStyle=1;overflow=hidden;whiteSpace=wrap;html=1;strokeColor=#23445d;" vertex="1" parent="Vs4MO0yzSmGj7dVC-3Ge-82">
          <mxGeometry width="30" height="30" as="geometry">
            <mxRectangle width="30" height="30" as="alternateBounds" />
          </mxGeometry>
        </mxCell>
        <mxCell id="Vs4MO0yzSmGj7dVC-3Ge-84" value="ID" style="shape=partialRectangle;connectable=0;fillColor=#bac8d3;top=0;left=0;bottom=0;right=0;align=left;spacingLeft=6;fontStyle=5;overflow=hidden;whiteSpace=wrap;html=1;strokeColor=#23445d;" vertex="1" parent="Vs4MO0yzSmGj7dVC-3Ge-82">
          <mxGeometry x="30" width="150" height="30" as="geometry">
            <mxRectangle width="150" height="30" as="alternateBounds" />
          </mxGeometry>
        </mxCell>
        <mxCell id="Vs4MO0yzSmGj7dVC-3Ge-85" value="" style="shape=tableRow;horizontal=0;startSize=0;swimlaneHead=0;swimlaneBody=0;fillColor=#bac8d3;collapsible=0;dropTarget=0;points=[[0,0.5],[1,0.5]];portConstraint=eastwest;top=0;left=0;right=0;bottom=0;strokeColor=#23445d;" vertex="1" parent="Vs4MO0yzSmGj7dVC-3Ge-81">
          <mxGeometry y="60" width="180" height="30" as="geometry" />
        </mxCell>
        <mxCell id="Vs4MO0yzSmGj7dVC-3Ge-86" value="" style="shape=partialRectangle;connectable=0;fillColor=#bac8d3;top=0;left=0;bottom=0;right=0;editable=1;overflow=hidden;whiteSpace=wrap;html=1;strokeColor=#23445d;" vertex="1" parent="Vs4MO0yzSmGj7dVC-3Ge-85">
          <mxGeometry width="30" height="30" as="geometry">
            <mxRectangle width="30" height="30" as="alternateBounds" />
          </mxGeometry>
        </mxCell>
        <mxCell id="Vs4MO0yzSmGj7dVC-3Ge-87" value="Row 1" style="shape=partialRectangle;connectable=0;fillColor=#bac8d3;top=0;left=0;bottom=0;right=0;align=left;spacingLeft=6;overflow=hidden;whiteSpace=wrap;html=1;strokeColor=#23445d;" vertex="1" parent="Vs4MO0yzSmGj7dVC-3Ge-85">
          <mxGeometry x="30" width="150" height="30" as="geometry">
            <mxRectangle width="150" height="30" as="alternateBounds" />
          </mxGeometry>
        </mxCell>
        <mxCell id="Vs4MO0yzSmGj7dVC-3Ge-88" value="" style="shape=tableRow;horizontal=0;startSize=0;swimlaneHead=0;swimlaneBody=0;fillColor=#bac8d3;collapsible=0;dropTarget=0;points=[[0,0.5],[1,0.5]];portConstraint=eastwest;top=0;left=0;right=0;bottom=0;strokeColor=#23445d;" vertex="1" parent="Vs4MO0yzSmGj7dVC-3Ge-81">
          <mxGeometry y="90" width="180" height="30" as="geometry" />
        </mxCell>
        <mxCell id="Vs4MO0yzSmGj7dVC-3Ge-89" value="" style="shape=partialRectangle;connectable=0;fillColor=#bac8d3;top=0;left=0;bottom=0;right=0;editable=1;overflow=hidden;whiteSpace=wrap;html=1;strokeColor=#23445d;" vertex="1" parent="Vs4MO0yzSmGj7dVC-3Ge-88">
          <mxGeometry width="30" height="30" as="geometry">
            <mxRectangle width="30" height="30" as="alternateBounds" />
          </mxGeometry>
        </mxCell>
        <mxCell id="Vs4MO0yzSmGj7dVC-3Ge-90" value="Row 2" style="shape=partialRectangle;connectable=0;fillColor=#bac8d3;top=0;left=0;bottom=0;right=0;align=left;spacingLeft=6;overflow=hidden;whiteSpace=wrap;html=1;strokeColor=#23445d;" vertex="1" parent="Vs4MO0yzSmGj7dVC-3Ge-88">
          <mxGeometry x="30" width="150" height="30" as="geometry">
            <mxRectangle width="150" height="30" as="alternateBounds" />
          </mxGeometry>
        </mxCell>
        <mxCell id="Vs4MO0yzSmGj7dVC-3Ge-91" value="" style="shape=tableRow;horizontal=0;startSize=0;swimlaneHead=0;swimlaneBody=0;fillColor=#bac8d3;collapsible=0;dropTarget=0;points=[[0,0.5],[1,0.5]];portConstraint=eastwest;top=0;left=0;right=0;bottom=0;strokeColor=#23445d;" vertex="1" parent="Vs4MO0yzSmGj7dVC-3Ge-81">
          <mxGeometry y="120" width="180" height="30" as="geometry" />
        </mxCell>
        <mxCell id="Vs4MO0yzSmGj7dVC-3Ge-92" value="" style="shape=partialRectangle;connectable=0;fillColor=#bac8d3;top=0;left=0;bottom=0;right=0;editable=1;overflow=hidden;whiteSpace=wrap;html=1;strokeColor=#23445d;" vertex="1" parent="Vs4MO0yzSmGj7dVC-3Ge-91">
          <mxGeometry width="30" height="30" as="geometry">
            <mxRectangle width="30" height="30" as="alternateBounds" />
          </mxGeometry>
        </mxCell>
        <mxCell id="Vs4MO0yzSmGj7dVC-3Ge-93" value="Row 3" style="shape=partialRectangle;connectable=0;fillColor=#bac8d3;top=0;left=0;bottom=0;right=0;align=left;spacingLeft=6;overflow=hidden;whiteSpace=wrap;html=1;strokeColor=#23445d;" vertex="1" parent="Vs4MO0yzSmGj7dVC-3Ge-91">
          <mxGeometry x="30" width="150" height="30" as="geometry">
            <mxRectangle width="150" height="30" as="alternateBounds" />
          </mxGeometry>
        </mxCell>
        <mxCell id="Vs4MO0yzSmGj7dVC-3Ge-96" style="edgeStyle=orthogonalEdgeStyle;rounded=0;orthogonalLoop=1;jettySize=auto;html=1;exitX=1;exitY=0.5;exitDx=0;exitDy=0;entryX=0;entryY=0.5;entryDx=0;entryDy=0;endArrow=none;endFill=0;fillColor=#bac8d3;strokeColor=#23445d;" edge="1" parent="1" source="Vs4MO0yzSmGj7dVC-3Ge-2" target="Vs4MO0yzSmGj7dVC-3Ge-43">
          <mxGeometry relative="1" as="geometry">
            <mxPoint x="850" y="840" as="targetPoint" />
            <Array as="points">
              <mxPoint x="840" y="635" />
              <mxPoint x="840" y="770" />
              <mxPoint x="1370" y="770" />
            </Array>
          </mxGeometry>
        </mxCell>
        <mxCell id="Vs4MO0yzSmGj7dVC-3Ge-97" style="edgeStyle=orthogonalEdgeStyle;rounded=0;orthogonalLoop=1;jettySize=auto;html=1;exitX=1;exitY=0.5;exitDx=0;exitDy=0;entryX=0;entryY=0.5;entryDx=0;entryDy=0;endArrow=none;endFill=0;fillColor=#bac8d3;strokeColor=#23445d;" edge="1" parent="1" target="Vs4MO0yzSmGj7dVC-3Ge-56">
          <mxGeometry relative="1" as="geometry">
            <mxPoint x="820" y="1000" as="targetPoint" />
            <mxPoint x="740" y="625" as="sourcePoint" />
            <Array as="points">
              <mxPoint x="820" y="625" />
              <mxPoint x="820" y="935" />
            </Array>
          </mxGeometry>
        </mxCell>
        <mxCell id="Vs4MO0yzSmGj7dVC-3Ge-100" style="edgeStyle=orthogonalEdgeStyle;rounded=0;orthogonalLoop=1;jettySize=auto;html=1;exitX=0;exitY=0.5;exitDx=0;exitDy=0;entryX=1;entryY=0.5;entryDx=0;entryDy=0;endArrow=none;endFill=0;fillColor=#bac8d3;strokeColor=#23445d;" edge="1" parent="1" source="Vs4MO0yzSmGj7dVC-3Ge-43" target="Vs4MO0yzSmGj7dVC-3Ge-56">
          <mxGeometry relative="1" as="geometry">
            <mxPoint x="1220" y="758.6666666666666" as="targetPoint" />
            <Array as="points">
              <mxPoint x="1296" y="758" />
              <mxPoint x="1296" y="780" />
              <mxPoint x="1220" y="780" />
              <mxPoint x="1220" y="935" />
            </Array>
          </mxGeometry>
        </mxCell>
        <mxCell id="Vs4MO0yzSmGj7dVC-3Ge-101" style="edgeStyle=orthogonalEdgeStyle;rounded=0;orthogonalLoop=1;jettySize=auto;html=1;exitX=1;exitY=0.5;exitDx=0;exitDy=0;entryX=-0.002;entryY=0.067;entryDx=0;entryDy=0;entryPerimeter=0;endArrow=none;endFill=0;fillColor=#bac8d3;strokeColor=#23445d;" edge="1" parent="1" source="Vs4MO0yzSmGj7dVC-3Ge-2" target="Vs4MO0yzSmGj7dVC-3Ge-69">
          <mxGeometry relative="1" as="geometry">
            <mxPoint x="790" y="1130" as="targetPoint" />
            <Array as="points">
              <mxPoint x="780" y="635" />
              <mxPoint x="780" y="1100" />
              <mxPoint x="970" y="1100" />
            </Array>
          </mxGeometry>
        </mxCell>
        <mxCell id="Vs4MO0yzSmGj7dVC-3Ge-102" style="edgeStyle=orthogonalEdgeStyle;rounded=0;orthogonalLoop=1;jettySize=auto;html=1;exitX=0;exitY=0.5;exitDx=0;exitDy=0;entryX=1;entryY=0.5;entryDx=0;entryDy=0;endArrow=none;endFill=0;fillColor=#bac8d3;strokeColor=#23445d;" edge="1" parent="1" source="Vs4MO0yzSmGj7dVC-3Ge-43" target="Vs4MO0yzSmGj7dVC-3Ge-69">
          <mxGeometry relative="1" as="geometry">
            <mxPoint x="1280" y="1100" as="targetPoint" />
            <Array as="points">
              <mxPoint x="1270" y="758" />
              <mxPoint x="1270" y="1100" />
              <mxPoint x="1150" y="1100" />
            </Array>
          </mxGeometry>
        </mxCell>
        <mxCell id="Vs4MO0yzSmGj7dVC-3Ge-103" style="edgeStyle=orthogonalEdgeStyle;rounded=0;orthogonalLoop=1;jettySize=auto;html=1;exitX=1;exitY=0.5;exitDx=0;exitDy=0;entryX=0;entryY=0.5;entryDx=0;entryDy=0;endArrow=none;endFill=0;fillColor=#bac8d3;strokeColor=#23445d;" edge="1" parent="1" source="Vs4MO0yzSmGj7dVC-3Ge-2" target="Vs4MO0yzSmGj7dVC-3Ge-82">
          <mxGeometry relative="1" as="geometry">
            <mxPoint x="760" y="1281.3333333333335" as="targetPoint" />
            <Array as="points">
              <mxPoint x="760" y="635" />
              <mxPoint x="760" y="1275" />
            </Array>
          </mxGeometry>
        </mxCell>
        <mxCell id="Vs4MO0yzSmGj7dVC-3Ge-104" style="edgeStyle=orthogonalEdgeStyle;rounded=0;orthogonalLoop=1;jettySize=auto;html=1;exitX=1;exitY=0.5;exitDx=0;exitDy=0;entryX=1;entryY=0.5;entryDx=0;entryDy=0;endArrow=none;endFill=0;fillColor=#bac8d3;strokeColor=#23445d;" edge="1" parent="1" source="Vs4MO0yzSmGj7dVC-3Ge-43" target="Vs4MO0yzSmGj7dVC-3Ge-82">
          <mxGeometry relative="1" as="geometry">
            <mxPoint x="1580" y="1261.3333333333335" as="targetPoint" />
            <Array as="points">
              <mxPoint x="1580" y="758" />
              <mxPoint x="1580" y="1275" />
            </Array>
          </mxGeometry>
        </mxCell>
        <mxCell id="sBbUG8jKWfK9Sq-vc8ym-18" style="edgeStyle=orthogonalEdgeStyle;rounded=0;orthogonalLoop=1;jettySize=auto;html=1;exitX=0;exitY=0;exitDx=0;exitDy=0;endArrow=none;endFill=0;" edge="1" parent="1" source="Vs4MO0yzSmGj7dVC-3Ge-105" target="Vs4MO0yzSmGj7dVC-3Ge-2">
          <mxGeometry relative="1" as="geometry">
            <mxPoint x="400" y="640" as="targetPoint" />
            <Array as="points">
              <mxPoint x="550" y="380" />
              <mxPoint x="420" y="380" />
              <mxPoint x="420" y="640" />
            </Array>
          </mxGeometry>
        </mxCell>
        <mxCell id="Vs4MO0yzSmGj7dVC-3Ge-105" value="FOLLOW" style="shape=table;startSize=30;container=1;collapsible=1;childLayout=tableLayout;fixedRows=1;rowLines=0;fontStyle=1;align=center;resizeLast=1;html=1;fillColor=#bac8d3;strokeColor=#23445d;" vertex="1" parent="1">
          <mxGeometry x="550" y="400" width="180" height="150" as="geometry" />
        </mxCell>
        <mxCell id="Vs4MO0yzSmGj7dVC-3Ge-106" value="" style="shape=tableRow;horizontal=0;startSize=0;swimlaneHead=0;swimlaneBody=0;fillColor=#bac8d3;collapsible=0;dropTarget=0;points=[[0,0.5],[1,0.5]];portConstraint=eastwest;top=0;left=0;right=0;bottom=1;strokeColor=#23445d;" vertex="1" parent="Vs4MO0yzSmGj7dVC-3Ge-105">
          <mxGeometry y="30" width="180" height="30" as="geometry" />
        </mxCell>
        <mxCell id="Vs4MO0yzSmGj7dVC-3Ge-107" value="PK" style="shape=partialRectangle;connectable=0;fillColor=#bac8d3;top=0;left=0;bottom=0;right=0;fontStyle=1;overflow=hidden;whiteSpace=wrap;html=1;strokeColor=#23445d;" vertex="1" parent="Vs4MO0yzSmGj7dVC-3Ge-106">
          <mxGeometry width="30" height="30" as="geometry">
            <mxRectangle width="30" height="30" as="alternateBounds" />
          </mxGeometry>
        </mxCell>
        <mxCell id="Vs4MO0yzSmGj7dVC-3Ge-108" value="ID" style="shape=partialRectangle;connectable=0;fillColor=#bac8d3;top=0;left=0;bottom=0;right=0;align=left;spacingLeft=6;fontStyle=5;overflow=hidden;whiteSpace=wrap;html=1;strokeColor=#23445d;" vertex="1" parent="Vs4MO0yzSmGj7dVC-3Ge-106">
          <mxGeometry x="30" width="150" height="30" as="geometry">
            <mxRectangle width="150" height="30" as="alternateBounds" />
          </mxGeometry>
        </mxCell>
        <mxCell id="Vs4MO0yzSmGj7dVC-3Ge-109" value="" style="shape=tableRow;horizontal=0;startSize=0;swimlaneHead=0;swimlaneBody=0;fillColor=#bac8d3;collapsible=0;dropTarget=0;points=[[0,0.5],[1,0.5]];portConstraint=eastwest;top=0;left=0;right=0;bottom=0;strokeColor=#23445d;" vertex="1" parent="Vs4MO0yzSmGj7dVC-3Ge-105">
          <mxGeometry y="60" width="180" height="30" as="geometry" />
        </mxCell>
        <mxCell id="Vs4MO0yzSmGj7dVC-3Ge-110" value="" style="shape=partialRectangle;connectable=0;fillColor=#bac8d3;top=0;left=0;bottom=0;right=0;editable=1;overflow=hidden;whiteSpace=wrap;html=1;strokeColor=#23445d;" vertex="1" parent="Vs4MO0yzSmGj7dVC-3Ge-109">
          <mxGeometry width="30" height="30" as="geometry">
            <mxRectangle width="30" height="30" as="alternateBounds" />
          </mxGeometry>
        </mxCell>
        <mxCell id="Vs4MO0yzSmGj7dVC-3Ge-111" value="timestep" style="shape=partialRectangle;connectable=0;fillColor=#bac8d3;top=0;left=0;bottom=0;right=0;align=left;spacingLeft=6;overflow=hidden;whiteSpace=wrap;html=1;strokeColor=#23445d;" vertex="1" parent="Vs4MO0yzSmGj7dVC-3Ge-109">
          <mxGeometry x="30" width="150" height="30" as="geometry">
            <mxRectangle width="150" height="30" as="alternateBounds" />
          </mxGeometry>
        </mxCell>
        <mxCell id="Vs4MO0yzSmGj7dVC-3Ge-112" value="" style="shape=tableRow;horizontal=0;startSize=0;swimlaneHead=0;swimlaneBody=0;fillColor=#bac8d3;collapsible=0;dropTarget=0;points=[[0,0.5],[1,0.5]];portConstraint=eastwest;top=0;left=0;right=0;bottom=0;strokeColor=#23445d;" vertex="1" parent="Vs4MO0yzSmGj7dVC-3Ge-105">
          <mxGeometry y="90" width="180" height="30" as="geometry" />
        </mxCell>
        <mxCell id="Vs4MO0yzSmGj7dVC-3Ge-113" value="FK" style="shape=partialRectangle;connectable=0;fillColor=#bac8d3;top=0;left=0;bottom=0;right=0;editable=1;overflow=hidden;whiteSpace=wrap;html=1;strokeColor=#23445d;" vertex="1" parent="Vs4MO0yzSmGj7dVC-3Ge-112">
          <mxGeometry width="30" height="30" as="geometry">
            <mxRectangle width="30" height="30" as="alternateBounds" />
          </mxGeometry>
        </mxCell>
        <mxCell id="Vs4MO0yzSmGj7dVC-3Ge-114" value="a-user-id" style="shape=partialRectangle;connectable=0;fillColor=#bac8d3;top=0;left=0;bottom=0;right=0;align=left;spacingLeft=6;overflow=hidden;whiteSpace=wrap;html=1;strokeColor=#23445d;" vertex="1" parent="Vs4MO0yzSmGj7dVC-3Ge-112">
          <mxGeometry x="30" width="150" height="30" as="geometry">
            <mxRectangle width="150" height="30" as="alternateBounds" />
          </mxGeometry>
        </mxCell>
        <mxCell id="Vs4MO0yzSmGj7dVC-3Ge-115" value="" style="shape=tableRow;horizontal=0;startSize=0;swimlaneHead=0;swimlaneBody=0;fillColor=#bac8d3;collapsible=0;dropTarget=0;points=[[0,0.5],[1,0.5]];portConstraint=eastwest;top=0;left=0;right=0;bottom=0;strokeColor=#23445d;" vertex="1" parent="Vs4MO0yzSmGj7dVC-3Ge-105">
          <mxGeometry y="120" width="180" height="30" as="geometry" />
        </mxCell>
        <mxCell id="Vs4MO0yzSmGj7dVC-3Ge-116" value="FK" style="shape=partialRectangle;connectable=0;fillColor=#bac8d3;top=0;left=0;bottom=0;right=0;editable=1;overflow=hidden;whiteSpace=wrap;html=1;strokeColor=#23445d;" vertex="1" parent="Vs4MO0yzSmGj7dVC-3Ge-115">
          <mxGeometry width="30" height="30" as="geometry">
            <mxRectangle width="30" height="30" as="alternateBounds" />
          </mxGeometry>
        </mxCell>
        <mxCell id="Vs4MO0yzSmGj7dVC-3Ge-117" value="b-user-id" style="shape=partialRectangle;connectable=0;fillColor=#bac8d3;top=0;left=0;bottom=0;right=0;align=left;spacingLeft=6;overflow=hidden;whiteSpace=wrap;html=1;strokeColor=#23445d;" vertex="1" parent="Vs4MO0yzSmGj7dVC-3Ge-115">
          <mxGeometry x="30" width="150" height="30" as="geometry">
            <mxRectangle width="150" height="30" as="alternateBounds" />
          </mxGeometry>
        </mxCell>
        <mxCell id="Vs4MO0yzSmGj7dVC-3Ge-118" value="TO_COMMENT" style="shape=table;startSize=30;container=1;collapsible=1;childLayout=tableLayout;fixedRows=1;rowLines=0;fontStyle=1;align=center;resizeLast=1;html=1;fillColor=#bac8d3;strokeColor=#23445d;" vertex="1" parent="1">
          <mxGeometry x="1480" y="410" width="180" height="120" as="geometry" />
        </mxCell>
        <mxCell id="Vs4MO0yzSmGj7dVC-3Ge-119" value="" style="shape=tableRow;horizontal=0;startSize=0;swimlaneHead=0;swimlaneBody=0;fillColor=#bac8d3;collapsible=0;dropTarget=0;points=[[0,0.5],[1,0.5]];portConstraint=eastwest;top=0;left=0;right=0;bottom=1;strokeColor=#23445d;" vertex="1" parent="Vs4MO0yzSmGj7dVC-3Ge-118">
          <mxGeometry y="30" width="180" height="30" as="geometry" />
        </mxCell>
        <mxCell id="Vs4MO0yzSmGj7dVC-3Ge-120" value="PK" style="shape=partialRectangle;connectable=0;fillColor=#bac8d3;top=0;left=0;bottom=0;right=0;fontStyle=1;overflow=hidden;whiteSpace=wrap;html=1;strokeColor=#23445d;" vertex="1" parent="Vs4MO0yzSmGj7dVC-3Ge-119">
          <mxGeometry width="30" height="30" as="geometry">
            <mxRectangle width="30" height="30" as="alternateBounds" />
          </mxGeometry>
        </mxCell>
        <mxCell id="Vs4MO0yzSmGj7dVC-3Ge-121" value="ID" style="shape=partialRectangle;connectable=0;fillColor=#bac8d3;top=0;left=0;bottom=0;right=0;align=left;spacingLeft=6;fontStyle=5;overflow=hidden;whiteSpace=wrap;html=1;strokeColor=#23445d;" vertex="1" parent="Vs4MO0yzSmGj7dVC-3Ge-119">
          <mxGeometry x="30" width="150" height="30" as="geometry">
            <mxRectangle width="150" height="30" as="alternateBounds" />
          </mxGeometry>
        </mxCell>
        <mxCell id="sBbUG8jKWfK9Sq-vc8ym-28" value="" style="shape=tableRow;horizontal=0;startSize=0;swimlaneHead=0;swimlaneBody=0;fillColor=#bac8d3;collapsible=0;dropTarget=0;points=[[0,0.5],[1,0.5]];portConstraint=eastwest;top=0;left=0;right=0;bottom=1;strokeColor=#23445d;" vertex="1" parent="Vs4MO0yzSmGj7dVC-3Ge-118">
          <mxGeometry y="60" width="180" height="30" as="geometry" />
        </mxCell>
        <mxCell id="sBbUG8jKWfK9Sq-vc8ym-29" value="PK" style="shape=partialRectangle;connectable=0;fillColor=#bac8d3;top=0;left=0;bottom=0;right=0;fontStyle=1;overflow=hidden;whiteSpace=wrap;html=1;strokeColor=#23445d;" vertex="1" parent="sBbUG8jKWfK9Sq-vc8ym-28">
          <mxGeometry width="30" height="30" as="geometry">
            <mxRectangle width="30" height="30" as="alternateBounds" />
          </mxGeometry>
        </mxCell>
        <mxCell id="sBbUG8jKWfK9Sq-vc8ym-30" value="user-id" style="shape=partialRectangle;connectable=0;fillColor=#bac8d3;top=0;left=0;bottom=0;right=0;align=left;spacingLeft=6;fontStyle=5;overflow=hidden;whiteSpace=wrap;html=1;strokeColor=#23445d;" vertex="1" parent="sBbUG8jKWfK9Sq-vc8ym-28">
          <mxGeometry x="30" width="150" height="30" as="geometry">
            <mxRectangle width="150" height="30" as="alternateBounds" />
          </mxGeometry>
        </mxCell>
        <mxCell id="Vs4MO0yzSmGj7dVC-3Ge-122" value="" style="shape=tableRow;horizontal=0;startSize=0;swimlaneHead=0;swimlaneBody=0;fillColor=#bac8d3;collapsible=0;dropTarget=0;points=[[0,0.5],[1,0.5]];portConstraint=eastwest;top=0;left=0;right=0;bottom=0;strokeColor=#23445d;" vertex="1" parent="Vs4MO0yzSmGj7dVC-3Ge-118">
          <mxGeometry y="90" width="180" height="30" as="geometry" />
        </mxCell>
        <mxCell id="Vs4MO0yzSmGj7dVC-3Ge-123" value="" style="shape=partialRectangle;connectable=0;fillColor=#bac8d3;top=0;left=0;bottom=0;right=0;editable=1;overflow=hidden;whiteSpace=wrap;html=1;strokeColor=#23445d;" vertex="1" parent="Vs4MO0yzSmGj7dVC-3Ge-122">
          <mxGeometry width="30" height="30" as="geometry">
            <mxRectangle width="30" height="30" as="alternateBounds" />
          </mxGeometry>
        </mxCell>
        <mxCell id="Vs4MO0yzSmGj7dVC-3Ge-124" value="comment-id" style="shape=partialRectangle;connectable=0;fillColor=#bac8d3;top=0;left=0;bottom=0;right=0;align=left;spacingLeft=6;overflow=hidden;whiteSpace=wrap;html=1;strokeColor=#23445d;" vertex="1" parent="Vs4MO0yzSmGj7dVC-3Ge-122">
          <mxGeometry x="30" width="150" height="30" as="geometry">
            <mxRectangle width="150" height="30" as="alternateBounds" />
          </mxGeometry>
        </mxCell>
        <mxCell id="sBbUG8jKWfK9Sq-vc8ym-31" style="edgeStyle=orthogonalEdgeStyle;rounded=0;orthogonalLoop=1;jettySize=auto;html=1;entryX=0.639;entryY=-0.007;entryDx=0;entryDy=0;entryPerimeter=0;endArrow=none;endFill=0;" edge="1" parent="1" source="Vs4MO0yzSmGj7dVC-3Ge-119" target="Vs4MO0yzSmGj7dVC-3Ge-29">
          <mxGeometry relative="1" as="geometry" />
        </mxCell>
      </root>
    </mxGraphModel>
  </diagram>
</mxfile>
